<svg width="168" height="182" viewBox="0 0 168 182" fill="none" xmlns="http://www.w3.org/2000/svg">
<path d="M83.2 58.7C83.8 59.3 83.9 59.9 83.2 60.6C62.4 79.4 40.5 90.2 25.1 90.2C20.4 90.4 15.7 89.1 11.9 86.3C6.59995 82.2 -4.88497e-05 71.3 14.3 44.2C28.1 17.9 49.5 2.1 62.5 0.599994C67.1 -3.8147e-06 70.9 1.2 73.3 4C75.4 6.59999 76.3 9.9 75.7 13.2C74.9 20.8 69.2 29.5 60.7 35.8C59.9 36.3 59.2 35.9 58.7 35.1C58.1 34.4 57.9 33.6 58.7 33C66.3 27.4 71.7 19.5 72.4 12.8C72.8 10.5 72.2 8.1 70.7 6.2C69.1 4.29999 66.4 3.5 62.9 3.9C50.7 5.3 30.6 20.5 17.3 45.8C7.69995 64 6.39995 77.8 14 83.6C24.1 91.5 51.3 85.5 81.2 58.4C81.9 57.8 82.5 58 83.2 58.7ZM100.616 58C101.216 57.3 101.516 57.8 102.116 58.5C102.816 59.1 103.716 59.7 103.016 60.4C100.916 62.8 97.7164 64 94.5164 63.4C90.8164 63.1 88.3164 59.3 86.2164 56.5C83.5164 61.6 81.0164 66.9 78.7164 72.3C78.6164 72.7 78.4164 73.1 78.2164 73.4C78.2164 73.5 78.2164 73.5 78.2164 73.5C77.8164 74.1 77.7164 74.3 77.2164 74.4C76.9164 74.4 76.5164 74.4 76.2164 74.2C75.1164 73.8 74.8164 73.2 75.1164 72.2C75.1164 72.2 75.1164 72.2 75.1164 72.1C75.2164 71.8 75.4164 71.4 75.5164 71L76.4164 68.9C78.1164 64.6 81.1164 57.4 80.1164 55.6C79.6164 54.8 80.3164 54.2 81.1164 53.8C81.9164 53.3 82.6164 53.2 83.0164 54C83.2164 54.2 83.3164 54.5 83.4164 54.7C84.9164 52.2 85.5164 52.2 86.1164 52.1C86.8164 52 87.5164 52.4 87.9164 52.9L88.2164 53.4C90.1164 56.1 92.2164 60.4 94.7164 60.6C97.0164 60.8 99.2164 59.8 100.616 58ZM124.608 58.9C125.108 59.6 125.508 60.5 124.708 61C117.408 66.1 111.508 68.6 107.008 68.6C105.708 68.6 104.308 68.4 103.108 67.8C101.208 66.8 99.8078 64.9 99.5078 62.7C99.3078 60.8 99.8078 57.8 103.408 54.6C106.308 52.1 110.308 53 110.908 55C111.408 56.9 111.608 57.8 111.008 59C110.508 60.2 108.408 62.5 103.608 62.4C103.208 62.5 102.908 62.4 102.508 62.4C102.208 64.1 103.208 65.9 104.908 66.6C106.808 67.5 111.508 66.7 122.908 58.8C123.608 58.3 124.008 58.1 124.608 58.9ZM105.608 57.1C105.008 57.7 104.408 58.3 103.908 59H104.008C108.008 59 109.408 56.5 109.008 56.3C108.408 55.9 107.108 55.8 105.608 57.1ZM166.464 59C167.064 59.8 167.364 60.5 166.664 61C159.264 66 154.664 63.4 152.964 62C152.564 61.7 152.164 61.3 151.864 60.9C150.564 63.6 148.764 66 146.464 68C144.064 70.6 140.064 71 137.064 69C135.564 68.1 134.564 66.7 134.264 65C131.664 68 128.364 70.8 125.364 70.8C124.564 70.8 123.764 70 123.064 69.6C122.064 69 121.464 68.7 121.164 67.5C120.064 62.9 125.164 55 125.164 54.9C125.764 54.1 126.364 54.5 127.064 55C127.864 55.5 128.564 56 128.064 56.8C126.764 58.6 123.264 64.9 123.864 67.2C123.864 67.5 123.964 67.7 124.164 67.8C126.164 68.9 132.164 62.9 135.864 57.2C136.364 56.5 136.964 56.9 137.764 57.3C138.564 57.8 139.164 58.1 138.764 58.9C137.164 62.4 136.464 66.7 138.164 67.9C139.464 68.9 142.364 67.2 144.264 65.5C146.964 63.2 148.864 60.1 149.864 56.7C149.464 54.9 149.664 53 150.364 51.3C150.564 50.7 151.164 50.9 151.864 50.9C152.564 50.8 153.164 50.6 153.464 51.2C153.964 53 153.864 54.9 153.364 56.7C153.264 57.8 152.664 59.3 154.664 60.6C157.064 62.3 161.064 61.4 164.864 58.8C165.664 58.3 165.964 58.2 166.464 59ZM137.003 109.8C139.703 113.3 139.503 117.9 136.403 123.7C136.003 124.6 135.203 124.2 134.403 123.8C133.603 123.3 133.003 123 133.403 122.2C135.803 117.7 136.103 114.2 134.303 111.9C129.603 105.8 112.303 106.4 93.1031 109.1C90.5031 116.2 87.0031 125.3 82.7031 136.3C75.8031 154.1 68.9031 171.9 66.4031 178.3C66.1031 179.1 65.7031 180 65.4031 180.8C65.1031 181.4 64.6031 181.3 64.0031 181.3C63.8031 181.3 63.5031 181.3 63.3031 181.2C62.5031 180.8 61.9031 180.4 62.2031 179.5L63.2031 177.1C68.5031 161.6 67.9031 131.8 54.7031 122.3C52.7031 120.6 50.6031 119.1 48.3031 118C46.1031 118.5 44.0031 119 42.1031 119.4C26.0031 123.2 27.3031 123.2 26.6031 121.2C26.0031 119.4 25.6031 118.9 33.6031 115.6C38.3031 113.5 43.6031 113.1 48.5031 114.5C63.4031 111.1 77.8031 108 90.7031 106.1C91.7031 103.3 92.6031 100.8 93.4031 98.7C93.0031 98.2 93.0031 97.5 93.2031 97C96.6031 89.1 96.7031 88.8 98.4031 89.5C100.203 90.3 100.203 90.3 94.5031 105.5C115.603 102.6 131.703 102.9 137.003 109.8ZM69.2031 161.8C76.3031 143.6 83.9031 123.8 89.3031 109.7C76.8031 111.7 63.9031 114.4 53.4031 116.8C54.7031 117.7 56.0031 118.7 57.1031 119.9C65.8031 128.9 69.7031 146.5 69.2031 161.8ZM145.934 148.9C146.334 149.5 146.634 150.2 145.934 150.7C139.934 154.9 131.834 157.4 128.234 157.4C127.034 157.4 125.934 157.2 124.934 156.7C123.634 156 122.634 154.8 122.234 153.4C117.434 156.8 111.734 158.6 105.934 158.6C104.534 158.6 103.234 158.4 102.034 157.8C100.034 156.8 98.7335 154.9 98.4335 152.7C98.2335 150.8 98.6335 147.8 102.334 144.6C105.134 142.1 109.234 143 109.834 145C110.334 146.9 110.534 147.8 109.934 149C109.434 150.2 107.234 152.5 102.534 152.4C102.134 152.5 101.834 152.4 101.434 152.4C101.434 152.9 100.934 154.7 103.734 156.1C105.634 157.1 110.434 158.1 121.834 150.3C122.734 148.6 123.934 147.1 125.234 145.8C127.534 143.7 130.934 144.4 131.434 146.1C131.834 147.7 132.034 148.4 131.534 149.4C131.034 150.4 129.334 152.3 125.334 152.3C125.034 152.3 124.734 152.3 124.434 152.2C124.434 152.7 124.334 153.7 126.534 155.1C128.334 156.2 135.834 154 144.534 148.9C145.134 148.5 145.434 148.3 145.934 148.9ZM127.034 147.9C126.534 148.3 126.034 148.9 125.634 149.5H125.734C128.934 149.5 130.134 147.4 129.834 147.2C129.334 146.8 128.234 146.8 127.034 147.9ZM104.534 147.1C103.934 147.7 103.334 148.3 102.734 149H102.934C106.834 149 108.234 146.5 107.934 146.3C107.234 145.9 106.034 145.8 104.534 147.1Z" fill="#9B0000"/>
</svg>
