<svg width="209" height="219" viewBox="0 0 209 219" fill="none" xmlns="http://www.w3.org/2000/svg">
<path d="M53.8 61.3C54.7 60.9 55 60.5 55.4 61.3C55.8 62.2 56 63 55.2 63.3C46.6 67.2 38.7 71.1 33.1 74.1C34.4 75.6 35.2 77.5 35.4 79.5C35.5 82.4 34.3 85.2 32.1 87C26.3 92.9 18.1 96.1 12.7 96.1C11.6 96.2 10.4 96 9.40002 95.6C7.80002 95.1 6.70002 93.6 6.70002 92C6.60003 87.5 13.9 81 27.7 73.3C25 70.9 22.1 68.7 19.2 66.7C14.7 63.7 10.5 60.3 6.60003 56.6C2.10002 52.7 2.45273e-05 46.6 1.10002 40.7C4.00002 25.5 26.2 10.7 40.5 4.5C49.5 0.600003 54.3 5.00679e-06 56.3 2.6C59.2 6.6 52 15.5 48.9 19.1C48.2 19.8 48 19.5 47.3 18.9C46.6 18.3 45.7 17.6 46.3 16.9C51.2 11.3 54.3 5.6 53.5 4.60001C53.5 4.60001 52.1 3.1 41.8 7.6C25.4 14.7 6.80002 29 4.50002 41.4C3.60003 46.1 5.30002 51.1 9.00003 54.2C12.8 57.8 16.8 61 21.1 64C24.5 66.3 27.8 68.8 30.8 71.5C37 68.2 45.4 65.1 53.8 61.3ZM29.8 84.7C31.2 83.5 32.1 81.7 32.1 79.8C31.8 78.3 31.2 76.9 30.1 75.8C10.3 86.8 10.1 91.6 10.1 91.9C10.1 92 10.1 92.2 10.6 92.5C13.5 93.6 22.9 91.5 29.8 84.7ZM86.9321 60.3C87.6321 61 88.1321 61.7 87.5321 62.4C81.9321 68.2 76.6321 71.3 72.5321 71.3C71.3321 71.4 70.1321 71 69.1321 70.3C68.0321 69.6 66.3321 67.7 66.8321 63.6C62.3321 68.4 57.7321 72 54.3321 70.3C53.2321 69.8 52.4321 68.8 52.2321 67.6C51.2321 64 54.4321 58.7 55.9321 56.5C56.4321 55.7 57.0321 56.1 57.8321 56.6C58.6321 57.1 59.2321 57.6 58.7321 58.4C56.7321 61.3 55.0321 65.1 55.4321 66.8C55.5321 67 55.6321 67.2 55.8321 67.3C56.7321 67.7 59.5321 67.1 67.9321 57.4C69.9321 55.1 70.1321 54.7 71.4321 55.6C72.7321 56.5 72.6321 57.5 72.3321 58C69.6321 63.3 69.2321 68.5 70.5321 69.4C72.1321 70.5 77.8321 67.6 85.0321 60.1C85.7321 59.4 86.3321 59.7 86.9321 60.3ZM153.361 54.5C154.861 55.3 156.461 56.6 154.161 61.9C152.561 65.6 152.361 69 152.861 69.3C153.661 69.9 153.461 70.6 153.261 70.8C152.361 71.2 152.161 71.3 151.361 70.8C150.061 69.8 148.261 67.2 151.061 60.5C152.361 57.5 151.961 56.6 151.961 56.6C151.161 56.5 147.361 58.5 142.961 65C142.461 65.7 141.661 65.6 140.861 65.1C140.061 64.7 139.561 64.1 139.961 63.3C142.161 58.9 141.861 56.9 141.361 56.6C139.961 55.8 133.061 58.7 125.461 70.4C124.961 71.1 124.361 71.1 123.561 70.7C122.761 70.3 122.161 69.7 122.461 68.8L123.561 66.1C119.761 69.1 115.661 71.6 112.461 71.6C111.561 71.6 110.561 71.3 109.761 70.8C108.461 69.8 106.661 67.2 109.461 60.5C110.761 57.5 110.361 56.6 110.361 56.6C109.561 56.5 105.761 58.5 101.361 65C100.861 65.7 100.061 65.6 99.261 65.1C98.561 64.7 98.061 64.1 98.461 63.3C100.561 58.9 100.261 56.9 99.761 56.6C98.361 55.8 91.561 58.7 83.861 70.4C83.361 71.1 82.761 71.1 81.961 70.7C81.161 70.3 80.561 69.7 80.861 68.8L87.661 52.3C87.961 51.5 88.961 51.5 89.761 51.9C90.661 52.2 91.161 52.7 90.761 53.6L88.461 59.3C93.561 54.3 98.261 52.5 101.261 54.2C102.461 54.6 103.361 55.8 103.461 57.1C104.761 55.9 106.061 54.9 107.661 54.1C108.961 53.4 110.561 53.6 111.761 54.5C113.261 55.3 114.861 56.6 112.561 61.9C110.961 65.6 110.761 69 111.261 69.3C112.061 69.9 116.461 69.2 125.561 61C125.561 60.9 125.661 60.9 125.761 60.8L129.161 52.3C129.561 51.5 130.461 51.5 131.361 51.9C132.261 52.2 132.661 52.8 132.361 53.6L129.961 59.4C135.061 54.3 139.761 52.5 142.761 54.2C144.061 54.6 144.961 55.8 145.061 57.1C146.261 55.9 147.661 54.9 149.161 54.1C150.561 53.4 152.161 53.6 153.361 54.5ZM188.655 60.5C189.155 61.2 189.555 62.1 188.755 62.6C181.455 67.7 175.555 70.2 171.055 70.2C169.755 70.2 168.355 70 167.155 69.4C165.255 68.4 163.855 66.5 163.555 64.3C163.355 62.4 163.855 59.4 167.455 56.2C170.355 53.7 174.355 54.6 174.955 56.6C175.455 58.5 175.655 59.4 175.055 60.6C174.555 61.8 172.455 64.1 167.655 64C167.255 64.1 166.955 64 166.555 64C166.255 65.7 167.255 67.5 168.955 68.2C170.855 69.1 175.555 68.3 186.955 60.4C187.655 59.9 188.055 59.7 188.655 60.5ZM169.655 58.7C169.055 59.3 168.455 59.9 167.955 60.6H168.055C172.055 60.6 173.455 58.1 173.055 57.9C172.455 57.5 171.155 57.4 169.655 58.7ZM205.484 59.6C206.084 58.9 206.384 59.4 206.984 60.1C207.684 60.7 208.584 61.3 207.884 62C205.784 64.4 202.584 65.6 199.384 65C195.684 64.7 193.184 60.9 191.084 58.1C188.384 63.2 185.884 68.5 183.584 73.9C183.484 74.3 183.284 74.7 183.084 75C183.084 75.1 183.084 75.1 183.084 75.1C182.684 75.7 182.584 75.9 182.084 76C181.784 76 181.384 76 181.084 75.8C179.984 75.4 179.684 74.8 179.984 73.8C179.984 73.8 179.984 73.8 179.984 73.7C180.084 73.4 180.284 73 180.384 72.6L181.284 70.5C182.984 66.2 185.984 59 184.984 57.2C184.484 56.4 185.184 55.8 185.984 55.4C186.784 54.9 187.484 54.8 187.884 55.6C188.084 55.8 188.184 56.1 188.284 56.3C189.784 53.8 190.384 53.8 190.984 53.7C191.684 53.6 192.384 54 192.784 54.5L193.084 55C194.984 57.7 197.084 62 199.584 62.2C201.884 62.4 204.084 61.4 205.484 59.6ZM69.2785 167.3C70.1785 166.9 70.4785 166.5 70.8785 167.3C71.2785 168.2 71.4785 169 70.6785 169.3C62.0785 173.2 54.1785 177.1 48.5785 180.1C49.8785 181.6 50.6785 183.5 50.8785 185.5C50.9785 188.4 49.7785 191.2 47.5785 193C41.7785 198.9 33.5785 202.1 28.1785 202.1C27.0785 202.2 25.8785 202 24.8785 201.6C23.2785 201.1 22.1785 199.6 22.1785 198C22.0785 193.5 29.3785 187 43.1785 179.3C40.4785 176.9 37.5785 174.7 34.6785 172.7C30.1785 169.7 25.9785 166.3 22.0785 162.6C17.5785 158.7 15.4785 152.6 16.5785 146.7C19.4785 131.5 41.6785 116.7 55.9785 110.5C64.9785 106.6 69.7785 106 71.7785 108.6C74.6785 112.6 67.4785 121.5 64.3785 125.1C63.6785 125.8 63.4785 125.5 62.7785 124.9C62.0785 124.3 61.1785 123.6 61.7785 122.9C66.6785 117.3 69.7785 111.6 68.9785 110.6C68.9785 110.6 67.5785 109.1 57.2785 113.6C40.8785 120.7 22.2785 135 19.9785 147.4C19.0785 152.1 20.7785 157.1 24.4785 160.2C28.2785 163.8 32.2785 167 36.5785 170C39.9785 172.3 43.2785 174.8 46.2785 177.5C52.4785 174.2 60.8785 171.1 69.2785 167.3ZM45.2785 190.7C46.6785 189.5 47.5785 187.7 47.5785 185.8C47.2785 184.3 46.6785 182.9 45.5785 181.8C25.7785 192.8 25.5785 197.6 25.5785 197.9C25.5785 198 25.5785 198.2 26.0785 198.5C28.9785 199.6 38.3785 197.5 45.2785 190.7ZM101.911 166.4C102.611 167 102.711 167.6 102.111 168.3C97.1106 174.2 92.5106 176.6 88.6106 175.5C85.3106 174.5 83.0106 171 82.3106 166C81.9106 163.4 81.1106 161.7 80.3106 161.6C79.8106 161.5 76.1106 161.3 67.5106 177C67.4106 177.1 67.3106 177.3 67.2106 177.4C66.9106 177.8 66.5106 178 66.0106 178C65.7106 178 65.4106 177.7 65.2106 177.5C64.4106 177 63.9106 176.4 64.3106 175.6C64.4106 175.5 64.5106 175.3 64.6106 175.2C67.0106 169.6 69.1106 163.9 70.9106 158.1C70.9106 157.9 71.0106 157.7 71.1106 157.5C72.9106 152.1 75.2106 145.1 78.0106 136C79.8106 130.4 85.1106 114.2 90.2106 108.5C90.8106 107.9 91.6106 107.5 92.4106 107.5C93.3106 107.4 94.1106 107.7 94.7106 108.3C95.4106 108.9 96.3106 109.4 96.3106 110.6C96.3106 118.1 89.7106 136.1 74.2106 159C73.7106 160.3 73.3106 161.5 72.9106 162.7C75.9106 159.3 78.6106 157.8 80.9106 158.2C82.6106 158.6 84.9106 160.1 85.6106 165.5C86.2106 169.1 87.5106 172.8 89.4106 173.4C91.9106 174.1 96.3106 171 100.311 166.3C100.911 165.6 101.211 165.8 101.911 166.4ZM81.3106 137C80.2106 140.3 79.3106 143.3 78.4106 146C89.6106 127.3 93.3106 114.2 93.0106 110.4C91.0106 112.4 86.5106 120.2 81.3106 137ZM126.754 166.4C127.354 167.1 127.554 167.8 126.854 168.5C122.254 172.8 118.554 173 116.254 172.3C114.254 171.7 112.454 170.4 111.154 168.7C110.654 171 109.754 173.1 108.554 175.1C106.654 178.2 105.054 178.5 103.754 178.5C103.354 178.5 103.054 178.5 102.654 178.3C101.454 178.1 100.354 177.4 99.7535 176.4C98.5535 174.2 98.8535 170.5 100.454 166.3C101.454 163.4 103.554 160.9 106.354 159.6C107.354 159.2 108.154 158.5 109.054 158.9C109.554 158.8 110.054 159 110.454 159.4C111.254 160.4 111.754 161.6 111.754 162.9C113.154 166.3 114.654 169.6 116.754 170.2C118.854 170.8 122.554 168.8 125.254 166.2C125.954 165.6 126.054 165.8 126.754 166.4ZM105.654 173.3C107.354 170.4 108.354 167.1 108.454 163.8C108.254 163.2 108.054 162.6 107.854 162C107.854 162 107.754 162 107.654 162C107.554 162 107.454 162 107.354 162.1C106.454 162.4 104.954 164.1 103.654 167.5C102.154 171.3 101.954 174.8 102.454 175.8C102.554 176.1 102.754 176.3 103.054 176.4C103.354 176.5 104.554 175.1 105.654 173.3ZM144.107 165.6C144.707 164.9 145.007 165.4 145.607 166.1C146.307 166.7 147.207 167.3 146.507 168C144.407 170.4 141.207 171.6 138.007 171C134.307 170.7 131.807 166.9 129.707 164.1C127.007 169.2 124.507 174.5 122.207 179.9C122.107 180.3 121.907 180.7 121.707 181C121.707 181.1 121.707 181.1 121.707 181.1C121.307 181.7 121.207 181.9 120.707 182C120.407 182 120.007 182 119.707 181.8C118.607 181.4 118.307 180.8 118.607 179.8C118.607 179.8 118.607 179.8 118.607 179.7C118.707 179.4 118.907 179 119.007 178.6L119.907 176.5C121.607 172.2 124.607 165 123.607 163.2C123.107 162.4 123.807 161.8 124.607 161.4C125.407 160.9 126.107 160.8 126.507 161.6C126.707 161.8 126.807 162.1 126.907 162.3C128.407 159.8 129.007 159.8 129.607 159.7C130.307 159.6 131.007 160 131.407 160.5L131.707 161C133.607 163.7 135.707 168 138.207 168.2C140.507 168.4 142.707 167.4 144.107 165.6ZM192.987 145.2C192.987 146.1 192.187 146.8 191.287 146.8L158.687 146.9C154.787 156.7 150.487 165.2 146.687 168.5C137.487 196.8 133.787 215.9 133.687 217.1C133.587 219 131.787 217.8 131.687 217.7C130.187 216.6 127.487 214.5 150.287 146.9H117.687C117.687 147 116.787 148.3 116.087 148.3C115.887 148.3 115.687 148.3 115.487 148.3L111.287 146.8C110.487 146.6 110.087 145.8 110.187 145C110.287 144.1 110.987 143.5 111.887 143.5H151.387C154.087 135.5 157.187 126.6 160.587 116.7C166.487 100 167.387 101.4 168.787 101.4C169.687 101.4 170.687 101.3 170.987 102.1C172.187 105.1 166.687 125.4 159.987 143.5H191.287C192.187 143.5 192.987 144.2 192.987 145.2ZM150.087 158C151.987 154.4 153.687 150.7 155.087 146.9H153.787C152.487 150.8 151.287 154.5 150.087 158ZM154.987 143.5H156.387C160.087 133.3 163.287 122.8 165.787 112.3C165.187 113.8 164.587 115.7 163.787 117.8C160.587 127.1 157.587 135.7 154.987 143.5ZM192.298 166.8C192.698 167.6 193.098 168.3 192.198 168.7C183.298 173.3 176.198 177.3 170.498 180.6C171.598 183.6 171.198 186.9 169.498 189.6C165.598 196.3 154.798 201.2 148.998 201.2C148.498 201.2 147.998 201.2 147.598 201.1C145.198 200.6 145.398 198.7 145.298 198C144.998 196.4 145.598 194.7 146.798 193.6C149.898 190 156.298 185.2 165.998 179.4C165.798 179.1 165.598 178.9 165.398 178.6C162.498 175.2 158.598 170.6 162.598 163.2C164.898 158.9 169.798 153.4 173.198 155C176.298 156.4 174.698 161.6 173.198 165.3C172.798 166.1 171.898 165.9 170.998 165.6C170.198 165.2 169.698 164.9 170.098 164C170.998 162.2 171.498 160.2 171.598 158.2C168.998 159.7 166.898 162 165.598 164.8C162.598 170.2 165.098 173.1 167.898 176.4C168.298 176.8 168.598 177.2 168.898 177.6C174.998 174 182.298 170.8 190.698 166.5C191.498 166.1 191.798 166 192.298 166.8ZM164.998 190.1C167.398 187.5 168.198 185 167.498 182.4C150.498 192.7 148.298 196.9 147.998 197.7C149.898 198.4 159.598 196 164.998 190.1Z" fill="#9B0000"/>
</svg>
