<svg width="60" height="60" viewBox="0 0 60 60" fill="none" xmlns="http://www.w3.org/2000/svg">
<path d="M-6.80983e-05 5.04C-6.80983e-05 1.38 1.55993 -1.90735e-06 4.91993 -1.90735e-06C13.5599 -1.90735e-06 22.5599 5.16 31.1999 5.16C38.9999 5.16 46.4399 -1.90735e-06 54.2399 -1.90735e-06C57.6599 -1.90735e-06 59.1599 1.44 59.1599 4.8V5.04C59.0999 6.42 59.0999 7.86 59.0999 9.24V11.4V11.52V11.64V11.76V12.66V13.08V13.26V13.44C59.0999 16.26 59.1599 21.84 59.1599 30.3C59.0999 31.68 59.0999 33.06 59.0999 34.38V36.48V36.6V36.72V36.84V37.68V38.1V38.28V38.46C59.0999 41.16 59.1599 43.92 59.1599 46.62V48.66V48.78V49.44V49.56V49.68V49.8V49.92V50.04V50.4V50.52V50.64C59.1599 52.02 59.1599 53.4 59.0999 54.78C59.0999 58.2 58.1399 59.94 56.1599 59.94C53.3399 59.94 49.0199 56.88 46.9199 55.26C44.3399 44.64 44.5799 43.86 42.3599 42.6C40.2599 41.52 40.5599 40.32 40.5599 40.44C40.5599 40.02 40.7399 39.9 40.7399 39.84C40.7399 39.78 40.7399 39.78 40.6799 39.78C40.6799 39.48 40.4999 39.18 40.1999 38.88C39.7799 38.46 39.5399 38.04 39.5399 37.62C39.5399 37.56 39.4799 37.14 39.8999 36.36C40.3199 35.64 40.9199 34.98 40.9199 34.44C41.0999 32.7 41.0399 30.84 40.9799 29.1C40.9799 28.62 39.5399 27 39.0599 26.1C37.3199 21.96 34.1999 19.74 29.8199 19.74C24.7799 19.74 21.7799 21.72 20.0999 26.1C19.9199 26.52 19.9199 27.12 19.4999 27.3C17.8199 28.44 18.1199 29.94 18.1199 31.56C18.1199 33.3 17.8799 35.04 19.2599 36.48C19.3199 36.66 19.3799 36.84 19.3799 37.08C19.3799 37.38 19.3199 38.16 18.8999 39.36C18.4799 40.62 17.8799 41.82 17.5799 42C15.7199 42.84 14.6399 44.22 14.2199 46.2C12.7799 52.98 12.4799 53.46 12.1799 55.38C10.0799 57 5.87993 59.94 3.11993 59.94C1.07993 59.94 0.059932 58.2 0.059932 54.78C0.059932 38.04 0.119932 28.32 0.119932 24.96C0.119932 18.3 0.059932 11.76 -6.80983e-05 5.04ZM10.0199 13.08C11.8799 13.5 12.7799 14.52 13.1999 16.26C13.4999 14.4 14.5199 13.5 16.1999 13.02C14.5799 12.66 13.5599 11.64 13.1999 9.9C12.7799 11.64 11.8799 12.66 10.0199 13.08ZM46.7999 24.3C47.8799 24.54 48.5399 25.2 48.8399 26.34C49.0199 25.2 49.6199 24.54 50.7599 24.24C49.7399 24 49.0799 23.34 48.8399 22.26C48.5399 23.28 47.8799 24 46.7999 24.3ZM22.1399 34.5V34.08C22.1999 33.9 22.1999 33.66 22.1999 33.42V33.36V33.3V33.06V33V32.94V32.82V32.76V32.7C22.1999 32.28 22.1399 31.44 22.1399 30.96C22.1399 30.3 22.0799 28.38 23.0999 27.36C24.8399 25.92 27.2999 25.26 29.8799 25.26C32.4599 25.26 35.0399 25.92 36.7199 27.3C37.7399 28.2 37.7399 30.06 37.7399 30C37.7399 30.9 37.4399 31.86 36.7799 32.34C36.6599 32.4 36.4199 32.58 35.9999 32.76C35.9399 32.82 35.8799 32.82 35.8199 32.88H35.7599V32.94H35.6399L35.4599 33.06H35.3999V33.12C35.2199 33.18 35.1599 33.18 35.0999 33.24H35.0399L34.9199 33.36H34.8599C34.0799 33.78 33.2399 34.08 32.9399 34.08C32.1599 34.08 31.1999 32.52 29.9999 32.52C29.6999 32.52 29.2799 32.7 28.8599 33C28.0799 33.66 28.0199 34.32 28.0199 34.62C28.0199 35.28 28.5599 36.66 29.9999 36.66C30.5399 36.66 31.0199 36.48 31.5599 36.06C32.3399 35.4 31.8599 35.7 37.4999 34.08C37.5599 34.26 37.5599 34.56 37.5599 34.86C37.5599 35.82 37.4399 36.42 35.6999 36.84C33.9599 37.32 32.1599 37.5 30.4199 37.5C28.3199 37.5 26.0999 37.14 23.7599 36.48C22.6799 36.06 22.1399 35.4 22.1399 34.5ZM22.9199 29.94C22.9199 30.18 22.8599 30.18 22.8599 30.24C22.8599 30.3 22.8599 30.36 23.5799 31.98C23.7599 31.32 24.1799 30.9 24.1799 30.48V29.94C24.1799 29.04 24.7199 28.44 25.7399 28.02C26.3999 27.84 27.2399 27.48 27.2399 27.06C27.2399 26.94 27.2399 26.88 27.1799 26.82C27.1199 26.52 26.8799 26.4 26.3999 26.4C25.1399 26.4 22.9199 27.84 22.9199 29.94Z" fill="#FF0004"/>
</svg>
