<svg width="425" height="100" viewBox="0 0 425 100" fill="none" xmlns="http://www.w3.org/2000/svg">
<path d="M-3.27826e-07 8.40001C-3.27826e-07 2.3 2.6 1.90735e-06 8.2 1.90735e-06C22.6 1.90735e-06 37.6 8.6 52 8.6C65 8.6 77.4 1.90735e-06 90.4 1.90735e-06C96.1 1.90735e-06 98.6 2.40001 98.6 8.00001V8.40001C98.5 10.7 98.5 13.1 98.5 15.4V19V19.2V19.4V19.6V21.1V21.8V22.1V22.4C98.5 27.1 98.6 36.4 98.6 50.5C98.5 52.8 98.5 55.1 98.5 57.3V60.8V61V61.2V61.4V62.8V63.5V63.8V64.1C98.5 68.6 98.6 73.2 98.6 77.7V81.1V81.3V82.4V82.6V82.8V83V83.2V83.4V84V84.2V84.4C98.6 86.7 98.6 89 98.5 91.3C98.5 97 96.9 99.9 93.6 99.9C88.9 99.9 81.7 94.8 78.2 92.1C73.9 74.4 74.3 73.1 70.6 71C67.1 69.2 67.6 67.2 67.6 67.4C67.6 66.7 67.9 66.5 67.9 66.4C67.9 66.3 67.9 66.3 67.8 66.3C67.8 65.8 67.5 65.3 67 64.8C66.3 64.1 65.9 63.4 65.9 62.7C65.9 62.6 65.8 61.9 66.5 60.6C67.2 59.4 68.2 58.3 68.2 57.4C68.5 54.5 68.4 51.4 68.3 48.5C68.3 47.7 65.9 45 65.1 43.5C62.2 36.6 57 32.9 49.7 32.9C41.3 32.9 36.3 36.2 33.5 43.5C33.2 44.2 33.2 45.2 32.5 45.5C29.7 47.4 30.2 49.9 30.2 52.6C30.2 55.5 29.8 58.4 32.1 60.8C32.2 61.1 32.3 61.4 32.3 61.8C32.3 62.3 32.2 63.6 31.5 65.6C30.8 67.7 29.8 69.7 29.3 70C26.2 71.4 24.4 73.7 23.7 77C21.3 88.3 20.8 89.1 20.3 92.3C16.8 95 9.8 99.9 5.2 99.9C1.8 99.9 0.0999999 97 0.0999999 91.3C0.0999999 63.4 0.199999 47.2 0.199999 41.6C0.199999 30.5 0.0999999 19.6 -3.27826e-07 8.40001ZM16.7 21.8C19.8 22.5 21.3 24.2 22 27.1C22.5 24 24.2 22.5 27 21.7C24.3 21.1 22.6 19.4 22 16.5C21.3 19.4 19.8 21.1 16.7 21.8ZM78 40.5C79.8 40.9 80.9 42 81.4 43.9C81.7 42 82.7 40.9 84.6 40.4C82.9 40 81.8 38.9 81.4 37.1C80.9 38.8 79.8 40 78 40.5ZM36.9 57.5V56.8C37 56.5 37 56.1 37 55.7V55.6V55.5V55.1V55V54.9V54.7V54.6V54.5C37 53.8 36.9 52.4 36.9 51.6C36.9 50.5 36.8 47.3 38.5 45.6C41.4 43.2 45.5 42.1 49.8 42.1C54.1 42.1 58.4 43.2 61.2 45.5C62.9 47 62.9 50.1 62.9 50C62.9 51.5 62.4 53.1 61.3 53.9C61.1 54 60.7 54.3 60 54.6C59.9 54.7 59.8 54.7 59.7 54.8H59.6V54.9H59.4L59.1 55.1H59V55.2C58.7 55.3 58.6 55.3 58.5 55.4H58.4L58.2 55.6H58.1C56.8 56.3 55.4 56.8 54.9 56.8C53.6 56.8 52 54.2 50 54.2C49.5 54.2 48.8 54.5 48.1 55C46.8 56.1 46.7 57.2 46.7 57.7C46.7 58.8 47.6 61.1 50 61.1C50.9 61.1 51.7 60.8 52.6 60.1C53.9 59 53.1 59.5 62.5 56.8C62.6 57.1 62.6 57.6 62.6 58.1C62.6 59.7 62.4 60.7 59.5 61.4C56.6 62.2 53.6 62.5 50.7 62.5C47.2 62.5 43.5 61.9 39.6 60.8C37.8 60.1 36.9 59 36.9 57.5ZM38.2 49.9C38.2 50.3 38.1 50.3 38.1 50.4C38.1 50.5 38.1 50.6 39.3 53.3C39.6 52.2 40.3 51.5 40.3 50.8V49.9C40.3 48.4 41.2 47.4 42.9 46.7C44 46.4 45.4 45.8 45.4 45.1C45.4 44.9 45.4 44.8 45.3 44.7C45.2 44.2 44.8 44 44 44C41.9 44 38.2 46.4 38.2 49.9ZM109.549 92.2V84.1C109.549 73.3 109.449 66.9 109.449 64.5C109.449 57.7 109.749 50.9 110.349 44.1C112.449 18.9 133.949 1.90735e-06 158.449 1.90735e-06C185.649 1.90735e-06 207.549 21.4 208.349 48.6C208.449 49.7 208.449 50.9 208.449 52.1V53.9V54V54.5V54.7V55.4V55.5V55.6C208.449 57.9 208.349 62.4 208.349 69.6C208.349 76.9 208.449 81.7 208.449 84.1V85.9V86V86.6V86.7V87.5V87.6V87.7C208.449 88.9 208.449 90.1 208.349 91.3C208.249 97.3 206.949 99.8 202.249 99.8C201.349 99.8 200.349 99.7 199.149 99.5C195.249 98.9 191.049 98.1 186.749 97.1C180.249 86.3 172.749 74.1 166.249 63.3C166.449 63.2 166.749 63.2 167.249 63.2C169.949 62.5 172.449 62.4 174.949 61.7C176.049 61.4 176.949 61 177.849 60.3C179.149 59.5 179.149 58.4 177.849 57.6C175.449 56 170.849 55.3 168.149 54.8C167.049 54.7 166.249 54.7 165.749 53.8C165.649 53.5 165.349 53.3 165.049 53.3C163.549 52.2 161.749 51.6 159.649 51.6C156.949 51.6 154.049 52.2 152.349 54.5H152.249L152.149 54.6H152.049H151.949C151.849 54.7 151.849 54.7 151.749 54.7C149.049 55.2 146.449 55.6 143.749 56.3C142.649 56.6 141.549 57.2 140.549 57.9C140.049 58.2 139.849 58.5 139.849 58.9C139.849 59.2 140.049 59.6 140.549 60.1C141.549 61.4 146.249 62.4 148.049 62.7C149.349 63 150.549 63 152.049 63.3C145.649 73.7 138.249 85.9 131.749 96.7C129.449 97.2 127.349 97.7 125.049 98.2H124.849L124.749 98.3H124.549C124.449 98.3 124.349 98.3 124.249 98.4H124.049C123.949 98.4 123.849 98.4 123.749 98.5H123.449L123.249 98.6C123.149 98.6 123.049 98.6 122.949 98.7H122.749C122.649 98.7 122.549 98.7 122.449 98.8H122.149L121.949 98.9H121.549L121.349 99C121.049 99 120.849 99 120.749 99.1H120.549C120.449 99.2 120.349 99.2 120.249 99.2L120.049 99.3H119.749L119.549 99.4H119.249C119.149 99.5 119.049 99.5 118.949 99.5H118.749C118.649 99.6 118.549 99.6 118.449 99.6C117.549 99.8 116.649 99.9 115.949 99.9C111.849 99.9 109.549 97.1 109.549 92.2ZM132.749 21.9C132.049 25.3 130.049 27.3 126.749 28C130.049 28.9 132.049 31 132.749 34.3C133.449 31 135.449 28.9 138.649 28C135.549 27.3 133.549 25.2 132.749 21.9ZM183.249 24.5C182.849 26.5 181.649 27.7 179.749 28.1C181.849 28.6 182.949 29.8 183.249 31.9C183.749 29.8 184.949 28.6 186.849 28.1C184.949 27.6 183.749 26.4 183.249 24.5ZM164.849 76.9C165.149 76.6 165.049 76.4 165.349 76.4C165.649 76.4 165.649 76.6 165.949 76.9L165.649 77.2C165.549 77.3 165.449 77.4 165.349 77.4C165.149 77.3 164.949 77.1 164.849 76.9ZM151.049 78.7C151.049 77.9 151.449 77.5 152.249 77.5H152.449C153.349 77.5 153.749 77.9 153.749 78.7C153.749 79.6 153.349 80 152.549 80H152.349C151.449 80 151.049 79.6 151.049 78.7ZM150.149 97.1C149.949 96.8 149.849 96.6 149.849 96.4C149.849 96 150.149 95.6 150.649 95.3C152.849 93.9 155.349 93.2 158.049 93.2C157.249 92.5 156.449 92.4 155.549 92.4H154.749C154.649 92.4 154.349 92.5 153.949 92.6C153.849 92.7 153.649 92.7 153.349 92.7C153.049 92.7 152.749 92.5 152.449 92.2C152.349 91.9 152.249 91.7 152.249 91.6C152.249 91.2 152.349 90.9 152.649 90.6C152.949 90.3 153.149 90.3 153.249 90.2C154.049 89.9 154.849 89.8 155.649 89.8C157.049 89.8 158.349 90.2 159.449 91C159.649 91.2 159.849 91.3 160.049 91.4C160.749 90.9 161.349 90.2 162.149 89.7C161.049 87.8 160.149 86.3 159.049 84.6C158.949 84.2 158.849 83.9 158.849 83.7C158.849 83.4 159.049 83.1 159.349 82.8C159.649 82.6 159.849 82.5 160.149 82.5C160.549 82.5 160.949 82.8 161.249 83.3C161.949 84.7 162.949 86.3 164.049 88C164.349 87.8 164.649 87.7 165.049 87.7C165.149 87.7 165.649 87.7 166.449 88C166.549 88.1 166.749 88.1 167.049 88.1C167.549 88.1 168.249 87.8 169.149 87.7C169.649 87.4 170.249 87.1 170.749 86.8C171.149 86.7 171.449 86.6 171.549 86.6C171.849 86.6 172.149 86.8 172.449 87.1C172.649 87.4 172.749 87.7 172.749 87.9C172.749 88.4 172.549 88.7 172.049 89C170.749 89.9 169.249 90.4 167.349 90.6C167.049 90.6 166.649 90.8 166.149 91.1C164.549 92.4 162.949 93.8 161.349 95.3C160.849 95.7 160.249 95.9 159.549 95.9H159.049C158.549 95.7 158.049 95.6 157.549 95.6C155.649 95.6 153.549 96.6 151.949 97.4C151.549 97.5 151.249 97.6 151.049 97.6C150.749 97.6 150.449 97.4 150.149 97.1ZM164.049 84.7C164.049 83.5 164.949 82.6 166.149 82.6C167.249 82.6 168.249 83.5 168.249 84.6C168.249 85.8 167.249 86.7 166.149 86.7C164.949 86.7 164.049 85.8 164.049 84.7ZM146.049 94.7C145.549 94.7 145.249 94.4 145.249 93.9C145.249 93.5 145.549 93.2 146.049 93.1C146.549 93.1 146.849 93.4 146.849 93.9C146.849 94.4 146.549 94.7 146.049 94.7ZM219.043 92.3V7.4C219.043 2.1 221.643 1.90735e-06 226.743 1.90735e-06H252.243C263.743 1.90735e-06 263.643 1.90735e-06 265.843 10.5C274.743 3.80001 282.543 0.400003 289.443 0.400003C296.043 0.400003 301.843 3.5 306.743 9.6C310.843 14.7 312.343 20.6 312.343 25.4C312.343 26.9 312.543 30.7 309.843 36.7C308.543 39.6 306.743 42.2 304.243 44.6C300.243 48.3 294.543 50.9 287.743 50.9C280.143 50.9 272.243 47.6 265.043 39.2V64.4C265.043 73.6 264.943 79.1 264.943 81C264.943 84.7 265.043 88.3 265.143 92V92.4C265.143 97.2 263.043 99.9 257.843 99.9H226.543C221.543 99.9 219.043 97.4 219.043 92.3ZM289.843 14C289.443 15.6 288.443 16.6 286.843 17C288.443 17.5 289.443 18.6 289.843 20.1C290.143 18.5 291.143 17.5 292.843 17C291.243 16.6 290.243 15.6 289.843 14ZM224.343 56.7C224.243 57 224.243 57.5 224.243 58.1C224.243 60.4 225.543 62.8 228.643 62.8H229.343C229.543 62.8 229.843 62.7 230.243 62.6C241.043 60.2 250.443 51 257.643 43.3C262.143 38.5 271.343 27.4 271.343 20C271.343 17.1 269.743 15.3 266.643 15.3C260.843 15.6 254.243 20.2 249.943 23.7C249.843 23.7 249.743 23.8 249.643 24.1C250.343 24.4 250.943 24.3 251.643 24.6C251.743 24.7 252.143 24.7 252.643 24.7C253.343 24.7 253.843 24.5 254.343 24C258.443 21.1 261.343 19.4 266.443 18.3C266.543 18.2 266.843 18.2 267.143 18.2C268.043 18.2 268.543 18.8 268.543 20.1C268.543 20.7 268.443 21.2 268.343 21.6C267.443 23.9 266.643 26.1 265.443 28.2C259.343 38.8 242.343 56.8 230.243 59.8C229.943 59.9 229.543 59.9 229.043 59.9C227.743 59.9 227.143 59.3 227.143 58C227.143 57.5 227.143 57.1 227.243 56.8C227.343 55.7 227.643 55.1 227.943 54.4C229.643 51.2 231.443 48.4 233.143 45.3C233.443 44.8 233.643 44.3 233.643 43.8C233.343 42.9 233.243 41.9 232.943 40.7C229.443 45.3 225.443 50.8 224.343 56.7ZM229.543 19C229.143 20.7 228.143 21.7 226.443 22.1C228.143 22.5 229.143 23.5 229.543 25.2C229.843 23.3 230.843 22.5 232.443 22.1C230.743 21.7 229.843 20.7 229.543 19ZM235.843 37.9C235.743 38.2 235.743 38.6 235.743 39.2C235.743 42.8 237.743 47.4 241.643 49.4C241.943 49.5 242.043 49.6 242.143 49.6C242.243 49.6 242.443 49.5 242.743 49.4C248.443 44.7 253.543 39.9 258.043 33.9C258.343 33.8 258.343 33.3 258.343 33.2C258.343 33.1 258.343 33 258.243 32.9C257.143 31.7 256.443 30.6 255.343 29.3C254.543 30.2 253.743 31 253.043 31.7L251.643 33.1L246.143 38.6L244.143 36.6L252.743 28C250.843 27.3 249.243 26.9 247.843 26.9C241.443 26.9 236.543 31.5 235.843 37.9ZM243.943 40.8L240.943 43.6C240.443 43.1 240.043 42.5 239.343 41.8C240.143 40.9 241.243 40 242.343 39.1C242.443 39.4 242.743 39.5 243.043 39.8V39.9L243.943 40.8ZM252.343 60.3C251.643 63.2 250.243 64.8 247.143 65.5C250.043 66.2 251.743 68 252.343 70.9C252.843 68 254.543 66.2 257.443 65.5C254.643 64.8 252.943 63 252.343 60.3ZM324.214 9.80001V9.6C324.214 6.9 325.614 4.70001 328.514 2.8C331.614 0.900002 335.314 1.90735e-06 339.614 1.90735e-06H409.014C414.714 1.90735e-06 424.114 2.8 424.114 9.90001C424.114 15.4 424.014 20.3 423.814 24.8C423.714 29.3 423.614 33.8 423.614 38.2C423.614 41.8 418.714 43.3 415.714 43.3C409.714 43.3 404.114 43.1 398.114 43C397.014 43 396.014 43.9 396.014 45.1C396.014 46.4 396.614 47.1 397.814 47.2C401.514 47.6 404.714 47.9 407.514 48.2C411.414 48.6 414.514 49 416.814 49.7C422.014 51.2 423.514 53.7 423.514 59V70.8V70.9V71V71.1V71.2V71.3V71.7V71.8V72C423.514 72.8 423.514 73.6 423.614 74.4C423.714 79.5 423.814 84.5 423.814 89.6V90.1C423.814 92.7 422.314 95 419.414 96.9C416.314 98.9 412.614 99.9 408.414 99.9L333.114 99.7C330.614 99.7 328.614 99.2 327.114 98.2C325.614 97.1 324.814 95.9 324.814 94.6V94.4L325.314 73.1C325.314 68.9 331.714 67.8 334.914 67.8H357.214C358.514 67.8 359.714 66.8 359.714 65.3C359.714 64 358.714 63.1 357.514 62.8L338.814 60.4C334.314 59.5 330.814 58.3 328.414 57C326.014 55.6 324.814 53.3 324.714 50V44.6V44.5V44.4V44.3V44.2V44.1V43.9V43.8V43.6C324.714 42.8 324.714 41.9 324.614 41C324.514 40.1 324.514 39.1 324.514 38.2V36.4V36.3V36.2V36.1V35.8V35.7V29.9C324.514 26 324.414 22.3 324.314 18.7C324.314 15.1 324.214 12.1 324.214 9.80001ZM348.514 38.6C348.414 39.1 348.314 39.5 348.314 39.8C348.314 40.5 348.614 41.8 350.114 42.2C351.414 42.5 352.814 42.5 354.414 42.6C354.114 41.7 354.114 41.1 353.814 40.7H352.214C350.914 40.6 350.314 40.2 350.314 39.4C350.314 39.1 350.414 38.7 350.614 38.2C353.814 31.1 364.514 24.2 371.114 21C373.514 19.9 376.014 18.8 378.714 18.8H379.114C380.214 18.8 380.814 19.2 380.814 20C380.814 20.1 380.714 20.5 380.614 21C378.714 25.8 371.914 31.2 367.814 33.9C366.614 34.8 365.314 35.5 364.014 36.4C364.314 37.1 364.614 37.3 364.914 38C371.814 34.1 377.714 29.2 382.014 22.4C382.614 21.5 382.914 20.7 382.914 19.9C382.914 19 382.514 17.1 378.814 16.7C378.714 16.7 378.614 16.6 378.314 16.6C381.114 15.5 382.414 13.6 382.414 11.9C382.414 11.6 382.414 11.4 382.314 11.2C382.014 8.7 379.914 7.00001 377.514 7.00001C375.214 7.00001 373.214 8.6 372.814 10.9C372.714 11.1 372.714 11.4 372.714 11.8C372.714 14 374.114 15.6 377.014 16.7C376.814 16.9 376.714 17 376.614 17C366.614 19.8 358.414 25.5 351.514 33.2C350.214 34.7 349.314 36.7 348.514 38.6ZM390.614 19C387.814 25.8 382.414 30.7 376.814 35.5C377.314 36.2 377.614 36.3 378.014 37C383.714 32.4 391.814 24.4 393.114 16.9C393.214 16.6 393.214 16.1 393.214 15.5C393.214 13.5 392.514 11.4 389.814 10.1C388.414 9.6 387.014 9.30001 385.614 9.30001H385.514H385.414H385.114H385.014H384.914H384.814H384.714C384.414 9.30001 384.114 9.30001 383.814 9.40001L384.114 11.3C384.814 11.3 385.314 11.2 385.414 11.2C385.714 11.2 386.014 11.2 386.114 11.3C390.514 11.6 391.314 13.9 391.314 15.6C391.314 16.3 391.114 17.2 390.814 18.3C390.814 18.4 390.714 18.6 390.614 19ZM370.414 13.2C361.614 17.3 354.214 22.6 347.414 29.5L348.514 30.6C352.214 27.5 355.614 24.7 359.314 22C363.014 19.3 367.114 17.1 371.114 14.7V14.6C371.014 14.6 371.014 14.6 371.014 14.5C371.014 14.4 371.014 14.4 370.914 14.4V14.3V14.2H370.814V14.1C370.714 13.8 370.514 13.5 370.414 13.2ZM406.714 16.1C406.314 17.8 405.314 18.8 403.714 19.1C405.314 19.6 406.314 20.7 406.714 22.3C407.014 20.4 408.014 19.6 409.714 19.1C408.114 18.8 407.114 17.8 406.714 16.1ZM343.714 30.3C341.614 30.3 339.914 31.9 339.914 33.8V34.1C339.914 36.2 341.614 38 343.714 38C345.814 38 347.614 36.3 347.614 34.2C347.614 31.9 346.014 30.3 343.714 30.3ZM355.414 39V39.3C355.414 41.2 356.914 42.9 359.214 42.9C361.314 42.9 363.014 41.1 363.014 39C363.014 36.9 361.314 35.1 359.214 35.1C356.914 35.1 355.414 36.9 355.414 39ZM367.014 39.9C367.014 42.7 369.014 44.8 371.714 44.8C374.414 44.8 376.414 42.7 376.514 40C376.514 37.3 374.414 35.1 371.714 35.1C369.014 35.1 367.014 37.2 367.014 39.9ZM338.914 43C338.814 43.7 338.714 44.3 338.714 45C338.714 47.9 340.214 50.7 344.914 51H346.714C347.914 51 349.814 51 352.114 50.5C357.014 49.4 361.614 47.6 366.114 44.9C365.814 44.2 365.614 43.9 365.314 43.4C362.514 44.6 359.714 46 356.914 47.1C353.614 48.3 350.314 49.3 346.814 49.3H346.014C345.514 49.3 345.214 49.3 345.014 49.2C342.114 48.7 340.614 47.2 340.614 44.9C340.614 44.4 340.714 43.9 340.814 43.2C341.114 42.3 341.414 41.2 341.814 40.1C341.114 39.8 340.814 39.6 340.014 39.3C339.614 40.8 339.214 41.8 338.914 43ZM379.114 78.3V78.4C379.114 79.5 382.614 81 388.214 82.6C388.914 87.4 392.914 91.2 397.814 91.2C401.314 91.2 404.514 89.1 406.214 86C408.514 86.3 410.414 86.4 412.114 86.4C414.514 86.4 416.114 86.2 416.214 85.5V85.4C416.214 84.3 412.914 82.8 407.314 81.2C407.314 76 402.814 71.8 397.714 71.8C393.814 71.8 390.414 74.1 388.914 77.7C386.714 77.5 384.814 77.4 383.214 77.4C380.814 77.4 379.214 77.6 379.114 78.3ZM358.014 81.3C357.314 84.2 355.514 85.9 352.714 86.6C355.614 87.3 357.314 89 358.014 91.9C358.514 88.8 360.214 87.3 363.014 86.6C360.314 85.8 358.614 84 358.014 81.3Z" fill="#9B0000"/>
</svg>
