<svg width="489" height="91" viewBox="0 0 489 91" fill="none" xmlns="http://www.w3.org/2000/svg">
<path d="M20.3 76.8C18.3 75.9 17.1 74.2 16.7 72.1C16.1 69 13.8 48 13.3 40.7C13 36.6 12.7 28.1 12.7 21.9V10.5L10.3 10.9C8.9 11.1 6.9 11.4 5.9 11.5C4.3 11.8 3.8 11.6 2.4 10.2C-1.41561e-07 7.79998 0.6 4.59998 3.6 3.19998C5.9 2.19999 16.3 0.499983 24.8 0.399985C28.6 0.399985 32 0.199987 33.2 1.49998C34.9 3.39998 35 6.09998 33.2 7.79998C32.1 8.99999 31.5 9.09999 27.7 9.09999C25.3 9.09999 23.1 9.29998 22.7 9.49999C21.7 10.2 21.3 24.3 22 36.1C22.3 41.6 23.3 52.1 24.2 59.3C25 66.6 26.1 71.5 25.7 73.2C25.2 75.4 22.4 77.6 20.3 76.8ZM59.9406 75.4C58.0406 74.4 57.4406 72.7 56.8406 65.7C56.6406 62.3 56.2406 59.4 56.1406 59.2C56.0406 59 53.7406 58.9 51.1406 59L46.3406 59.2L46.6406 63.8C47.0406 68.6 46.7406 70.1 44.9406 71.4C43.1406 72.7 39.7406 72 38.6406 69.9C37.0406 66.8 35.4406 27.4 36.3406 11.6C36.7406 5.69998 36.8406 4.89999 37.9406 3.79998C39.5406 2.19999 42.3406 2.19999 43.8406 3.69998C45.4406 5.39999 45.0406 7.19999 45.0406 8.79998C45.0406 12.9 45.1406 19.9 45.1406 27.8C45.1406 39.8 45.3406 49.8 45.5406 50C45.7406 50.2 48.1406 50.2 50.9406 50L56.0406 49.7L56.1406 37.1C56.1406 30.3 56.3406 19.8 56.5406 13.8C56.9406 3.39998 57.0406 2.99999 58.2406 1.49998C59.1406 0.399985 59.9406 -1.62125e-05 61.1406 -1.62125e-05C62.8406 -1.62125e-05 65.1406 0.899984 65.2406 3.89999C65.2406 4.29998 65.3406 17.2 65.3406 34.2C65.4406 51.2 65.7406 66.6 65.9406 68.6C66.5406 72.6 65.9406 74.6 63.7406 75.6C62.1406 76.4 61.5406 76.3 59.9406 75.4ZM90.6039 10.5C97.4039 10.2 103.004 14.3 105.904 19.4C109.004 24.7 109.904 31.5 106.604 37C104.904 39.8 102.604 40.4 100.404 41C98.1039 41.7 95.6039 42 92.9039 42.2C88.5039 42.6 83.6039 42.6 79.0039 42.6C80.5039 50.1 84.7039 52.9 87.7039 53.4C89.3039 53.7 90.5039 53.4 90.9039 53.1C91.4039 52.7 91.5039 52.8 91.4039 51.7C91.2039 50.5 91.6039 49.3 92.3039 48.3C93.1039 47.4 94.1039 46.7 95.3039 46.6C96.5039 46.5 97.7039 46.8 98.7039 47.6C99.6039 48.3 100.204 49.4 100.304 50.6C100.804 54.6 99.0039 58.4 96.0039 60.5C93.1039 62.5 89.5039 63 85.9039 62.3C78.8039 60.9 71.8039 54.4 69.9039 43.3C68.5039 35.4 69.6039 27.9 73.0039 21.9C76.3039 15.9 82.1039 11.5 89.2039 10.6C89.7039 10.5 90.1039 10.5 90.6039 10.5ZM91.6039 19.4C91.2039 19.4 90.8039 19.5 90.3039 19.5C86.2039 20 83.0039 22.4 80.8039 26.3C79.6039 28.6 78.8039 31 78.5039 33.6C83.2039 33.6 88.1039 33.6 92.1039 33.3C94.5039 33 96.6039 32.7 98.0039 32.4C98.4039 32.3 98.7039 32.1 99.1039 31.9C99.8039 30 99.6039 26.6 98.1039 23.9C96.6039 21.2 94.5039 19.5 91.6039 19.4ZM137.311 75.9C135.711 75 135.011 73.8 135.011 72.2C135.011 69.9 135.911 68.7 138.211 67.7C141.211 66.4 145.711 62.9 147.811 60.3C148.811 59.1 150.411 56.4 151.411 54.4C154.511 48 153.511 41.3 149.011 38.3C146.711 36.8 142.111 35.5 138.911 35.5C134.111 35.5 133.611 34.2 133.111 19.4L132.811 7.79998C132.711 5.79999 134.311 4.69998 136.111 4.69998L145.311 4.49999C155.411 4.29998 156.211 4.49999 157.511 6.99998C158.211 8.39998 158.211 8.79998 157.611 10.3C157.211 11.3 156.311 12.4 155.811 12.7C155.211 13 152.011 13.2 148.511 13.2H142.211V26.7L143.611 27C150.811 28.6 153.911 30.1 157.211 33.7C159.911 36.6 161.111 39.3 161.911 43.9C162.811 48.8 162.011 53.2 159.011 59.3C157.111 63.2 155.911 64.8 152.411 68.3C149.511 71.2 147.011 73.2 144.511 74.5C140.611 76.5 139.111 76.8 137.311 75.9ZM190.982 4.29998C193.482 4.29998 195.882 6.19999 196.782 8.89998C197.182 10.2 197.382 19 197.482 39C197.582 54.6 197.782 68.5 197.982 69.9C198.482 74.3 196.282 77 192.682 76.5C192.082 76.4 191.082 75.7 190.382 75C189.382 73.9 189.182 73 188.782 67.6C188.582 64.3 188.482 59.1 188.382 56C188.382 51.9 188.182 50.4 187.682 50.4C187.382 50.4 184.582 50.8 181.682 51.2C169.482 52.9 166.082 51.8 166.082 46.2C166.082 44.2 166.882 42.1 171.382 33.2C177.382 21.2 184.082 9.89999 186.982 6.49998C188.682 4.59998 189.282 4.29998 190.982 4.29998ZM188.382 20.6L186.482 23.7C184.482 27.2 176.982 41.9 176.982 42.4C176.982 42.8 178.082 42.7 182.282 42.1C189.182 41.1 188.382 42.6 188.382 30.8V20.6ZM222.64 7.09998C223.64 7.09998 224.64 7.39998 225.44 8.09999C227.94 10.1 227.74 14.1 224.94 15.5C221.34 17.3 213.94 33.7 212.14 43.9L211.74 45.8L215.04 46C221.14 46.5 226.24 49.8 228.24 54.6C229.44 57.4 229.34 62.2 228.04 65.2C226.74 68.1 223.64 71.2 220.84 72.6C217.84 74 213.64 74.2 211.04 72.9C204.94 70 202.04 62.1 202.64 50.1C202.94 43.5 203.74 39.2 205.84 32.4C208.84 22.9 216.04 9.89999 219.54 7.89998C220.44 7.29999 221.54 6.99998 222.64 7.09998ZM213.74 54.8C213.34 54.8 213.04 54.8 212.64 54.9C211.44 55.2 211.34 55.4 211.54 56.9C212.44 62.2 213.94 65.1 215.74 65.1C216.24 65.1 217.34 64.3 218.34 63.3C220.44 61.2 220.74 58.5 219.04 56.8C218.04 55.7 215.54 54.9 213.74 54.8ZM263.291 3.09999C272.091 3.09999 280.491 8.19999 282.791 14.9C283.891 18 283.891 24.8 282.791 28.8C281.191 35.3 273.191 49.2 267.091 56.1L264.991 58.4L265.291 65C265.691 72.2 265.291 73.6 263.091 74.6C261.591 75.3 260.991 75.3 259.391 74.6C257.691 74 256.791 71.5 256.391 65.9C255.891 57.2 254.591 22.8 254.591 15.4C254.591 8.99999 254.691 7.99998 255.691 6.39998C257.191 3.89999 259.091 3.09999 263.291 3.09999ZM263.291 11.8L263.591 22.4C263.791 28.2 264.091 35.6 264.291 38.8L264.591 44.6L266.791 41.4C267.891 39.6 269.591 36.8 270.491 35.3C273.191 30.5 274.991 24.6 274.691 21C274.591 19.1 274.091 17.2 273.591 16.4C272.591 14.8 268.191 12.6 265.191 12.1L263.291 11.8ZM352.936 75.4C353.736 76.3 354.036 77.5 353.936 78.7C353.836 79.9 353.136 81 352.236 81.8C341.036 90.8 326.936 89.4 315.936 83C307.936 78.4 301.136 71.3 296.936 63.2C297.036 64.3 297.036 66 297.236 68C297.636 72.6 297.636 74.2 297.036 75.5C295.836 78.6 292.536 79.2 290.036 76.8C288.836 75.6 288.536 74.8 288.536 73.2C288.536 72 288.036 65.9 287.436 59.5C286.436 50 286.236 44.5 286.236 28.2C286.236 4.09998 286.036 2.19999 293.036 2.29998C293.736 2.29998 294.536 2.29998 295.436 2.29998C305.136 2.59999 312.936 7.19999 315.436 15.2C318.536 25.1 314.536 37.9 304.936 49.3C304.036 50.4 303.236 51.6 302.636 52.9C305.036 61.5 312.036 70.4 320.436 75.3C329.236 80.3 338.436 81.3 346.636 74.8C347.536 74 348.736 73.6 349.936 73.7C351.136 73.9 352.236 74.5 352.936 75.4ZM295.836 46.3C296.036 46.2 297.636 44.2 299.336 42C304.236 35.5 307.636 27.3 307.736 22C307.736 17.1 304.636 13.1 299.736 11.7C298.536 11.3 297.736 11.1 297.136 11.1C295.536 11 295.336 12.4 295.136 17.2C294.436 27.9 294.936 46.9 295.836 46.3ZM331.236 61.4C327.136 59.9 323.636 55.5 322.136 49.9C321.136 45.9 321.036 37.4 322.136 32.9C324.336 23.2 330.736 16.6 336.936 16.6C338.236 16.6 339.536 16.9 340.736 17.5C343.836 19 347.536 23.1 348.736 26.5C351.636 34.3 351.036 46 347.236 53.4C345.736 56.4 342.136 60 339.736 61.1C337.436 62.2 333.836 62.3 331.236 61.4ZM330.336 39.8C330.036 45.6 331.036 50 333.036 52C334.536 53.5 335.236 53.6 336.836 52.5C342.436 48.5 343.236 29.1 337.936 26.3C337.536 26.1 337.036 25.9 336.536 26C335.636 26 334.636 26.8 333.636 28.3C331.536 31.3 330.636 34.5 330.336 39.8ZM356.27 72.9C353.07 71.5 351.37 68 352.47 65.3C353.57 62.6 356.87 61.9 359.27 63.8C360.37 64.6 360.87 64.7 362.47 64.2C366.17 63.2 369.27 58.9 371.67 51.6C373.27 46.4 373.67 33.6 372.47 23.8C371.97 20 371.37 16 371.07 15C369.37 9.39998 375.67 5.29999 378.97 9.89999C379.97 11.2 381.67 22.6 382.27 32.7C383.57 50.7 377.47 67 367.67 71.8C364.07 73.6 358.87 74.1 356.27 72.9ZM405.936 10.5C412.736 10.2 418.336 14.3 421.236 19.4C424.336 24.7 425.236 31.5 421.936 37C420.236 39.8 417.936 40.4 415.736 41C413.436 41.7 410.936 42 408.236 42.2C403.836 42.6 398.936 42.6 394.336 42.6C395.836 50.1 400.036 52.9 403.036 53.4C404.636 53.7 405.836 53.4 406.236 53.1C406.736 52.7 406.836 52.8 406.736 51.7C406.536 50.5 406.936 49.3 407.636 48.3C408.436 47.4 409.436 46.7 410.636 46.6C411.836 46.5 413.036 46.8 414.036 47.6C414.936 48.3 415.536 49.4 415.636 50.6C416.136 54.6 414.336 58.4 411.336 60.5C408.436 62.5 404.836 63 401.236 62.3C394.136 60.9 387.136 54.4 385.236 43.3C383.836 35.4 384.936 27.9 388.336 21.9C391.636 15.9 397.436 11.5 404.536 10.6C405.036 10.5 405.436 10.5 405.936 10.5ZM406.936 19.4C406.536 19.4 406.136 19.5 405.636 19.5C401.536 20 398.336 22.4 396.136 26.3C394.936 28.6 394.136 31 393.836 33.6C398.536 33.6 403.436 33.6 407.436 33.3C409.836 33 411.936 32.7 413.336 32.4C413.736 32.3 414.036 32.1 414.436 31.9C415.136 30 414.936 26.6 413.436 23.9C411.936 21.2 409.836 19.5 406.936 19.4ZM443.361 12.1C446.661 12 449.761 12.9 452.461 14.7C453.461 15.3 454.161 16.3 454.461 17.5C454.661 18.7 454.461 19.9 453.761 20.9C453.161 21.9 452.061 22.6 450.961 22.9C449.761 23.1 448.561 22.9 447.561 22.2C445.561 20.9 444.261 20.8 442.861 21.2C441.361 21.6 439.761 22.8 438.261 24.7C435.261 28.7 433.361 35.9 434.861 43.1C435.961 48.4 438.661 50.7 441.161 51.6C443.661 52.4 445.661 51.7 446.461 50.7C447.161 49.7 448.161 49 449.361 48.8C450.561 48.6 451.761 48.9 452.761 49.6C453.761 50.3 454.361 51.4 454.561 52.6C454.761 53.7 454.461 55 453.761 55.9C450.261 60.8 443.761 62 438.161 60C432.561 58.1 427.661 52.8 426.061 44.9C424.061 35.2 426.261 25.8 431.061 19.4C433.461 16.2 436.561 13.6 440.461 12.5C441.361 12.3 442.361 12.1 443.361 12.1ZM473.523 76.8C471.523 75.9 470.323 74.2 469.923 72.1C469.323 69 467.023 48 466.523 40.7C466.223 36.6 465.923 28.1 465.923 21.9V10.5L463.523 10.9C462.123 11.1 460.123 11.4 459.123 11.5C457.523 11.8 457.023 11.6 455.623 10.2C453.223 7.79998 453.823 4.59998 456.823 3.19998C459.123 2.19999 469.523 0.499983 478.023 0.399985C481.823 0.399985 485.223 0.199987 486.423 1.49998C488.123 3.39998 488.223 6.09998 486.423 7.79998C485.323 8.99999 484.723 9.09999 480.923 9.09999C478.523 9.09999 476.323 9.29998 475.923 9.49999C474.923 10.2 474.523 24.3 475.223 36.1C475.523 41.6 476.523 52.1 477.423 59.3C478.223 66.6 479.323 71.5 478.923 73.2C478.423 75.4 475.623 77.6 473.523 76.8Z" fill="#FF0000"/>
</svg>
