<svg width="162" height="183" viewBox="0 0 162 183" fill="none" xmlns="http://www.w3.org/2000/svg">
<path d="M85.5 19.7C90.2 29.9 84.2 44.7 70 58.4C54.2 73.5 39.6 77.1 29.3 77.1C27.9 77.1 26.7 77.1 25.4 77C22.4 76.7 19.4 76.1 16.6 75.1C12.3 84 7.79998 96.5 7.59998 96.8C6.79998 98.1 4.19998 97 4.79998 94.8C4.99998 93.8 5.89998 89.7 13.4 73.8C10.9 72.8 8.69998 71.1 6.89998 69C6.39998 68.3 6.79998 67.8 7.59998 67.2C8.29998 66.7 9.09998 66.3 9.69998 67C11.1 68.7 12.9 69.9 14.9 70.8C19.9 60.4 27.2 45.9 37.6 25.5L37.7 25.3C37.4 24.5 37.8 23.6 38.6 23.2C38.7 23.2 38.8 23.1 38.8 23L40 20.8C19.2 31.1 5.29998 49.2 3.99998 57.8C3.79998 59.1 3.79998 60.6 4.79998 61C5.69998 61.4 5.39998 62.2 4.99998 63.1C4.69998 63.9 4.39998 64.5 3.49998 64.1C2.19998 63.5 -2.40654e-05 61.9 0.699976 57.4C2.29998 46.3 18.8 26 42.5 15.9C50.3 0.699971 50.5 0.699971 52 0.999973C52.8 1.09997 53.4 1.69997 53.4 2.49997C53.5 3.29997 51.4 8.39997 48.7 13.6C53.6 12 58.7 10.9 63.9 10.3C74.3 9.19997 82.2 12.6 85.5 19.7ZM67.6 55.9C80.6 43.5 86.4 29.8 82.4 21.1C79.8 15.4 73.1 12.7 64.2 13.7C58.1 14.3 52 15.8 46.3 18.1C45 20.4 43.5 22.7 41.8 24.8L40.6 27.1C33.3 41.4 24.5 58.6 18 72C20.5 72.8 23.1 73.4 25.7 73.6C35.5 74.5 50.7 72.1 67.6 55.9ZM111.463 59.9C112.063 60.6 112.263 61.3 111.563 62C106.963 66.3 103.263 66.5 100.963 65.8C98.9633 65.2 97.1633 63.9 95.8633 62.2C95.3633 64.5 94.4633 66.6 93.2633 68.6C91.3633 71.7 89.7633 72 88.4633 72C88.0633 72 87.7633 72 87.3633 71.8C86.1633 71.6 85.0633 70.9 84.4633 69.9C83.2633 67.7 83.5633 64 85.1633 59.8C86.1633 56.9 88.2633 54.4 91.0633 53.1C92.0633 52.7 92.8633 52 93.7633 52.4C94.2633 52.3 94.7633 52.5 95.1633 52.9C95.9633 53.9 96.4633 55.1 96.4633 56.4C97.8633 59.8 99.3633 63.1 101.463 63.7C103.563 64.3 107.263 62.3 109.963 59.7C110.663 59.1 110.763 59.3 111.463 59.9ZM90.3633 66.8C92.0633 63.9 93.0633 60.6 93.1633 57.3C92.9633 56.7 92.7633 56.1 92.5633 55.5C92.5633 55.5 92.4633 55.5 92.3633 55.5C92.2633 55.5 92.1633 55.5 92.0633 55.6C91.1633 55.9 89.6633 57.6 88.3633 61C86.8633 64.8 86.6633 68.3 87.1633 69.3C87.2633 69.6 87.4633 69.8 87.7633 69.9C88.0633 70 89.2633 68.6 90.3633 66.8ZM135.482 59.9C136.282 60.5 136.882 61.1 136.282 61.8C130.382 69.3 123.782 73.5 118.482 73.5C116.982 73.5 115.382 73.1 114.082 72.3C104.882 66.6 108.482 44.4 124.082 11.5C129.282 0.399975 131.082 0.999973 132.782 0.399975C132.782 0.399975 134.682 -2.59876e-05 135.082 0.899974C137.882 6.89997 127.082 44.1 112.582 61.5C112.182 63.9 112.482 68.7 115.582 70.5C119.482 72.9 127.682 68.4 133.982 60.4C134.582 59.6 134.782 59.4 135.482 59.9ZM127.082 13C117.882 32.6 113.682 46.5 112.682 55.7C124.382 39.1 132.282 11.1 132.182 3.79997C130.182 6.69997 128.482 9.79997 127.082 13ZM160.487 59.9C161.087 60.6 161.287 61.3 160.587 62C155.987 66.3 152.287 66.5 149.987 65.8C147.987 65.2 146.187 63.9 144.887 62.2C144.387 64.5 143.487 66.6 142.287 68.6C140.387 71.7 138.787 72 137.487 72C137.087 72 136.787 72 136.387 71.8C135.187 71.6 134.087 70.9 133.487 69.9C132.287 67.7 132.587 64 134.187 59.8C135.187 56.9 137.287 54.4 140.087 53.1C141.087 52.7 141.887 52 142.787 52.4C143.287 52.3 143.787 52.5 144.187 52.9C144.987 53.9 145.487 55.1 145.487 56.4C146.887 59.8 148.387 63.1 150.487 63.7C152.587 64.3 156.287 62.3 158.987 59.7C159.687 59.1 159.787 59.3 160.487 59.9ZM139.387 66.8C141.087 63.9 142.087 60.6 142.187 57.3C141.987 56.7 141.787 56.1 141.587 55.5C141.587 55.5 141.487 55.5 141.387 55.5C141.287 55.5 141.187 55.5 141.087 55.6C140.187 55.9 138.687 57.6 137.387 61C135.887 64.8 135.687 68.3 136.187 69.3C136.287 69.6 136.487 69.8 136.787 69.9C137.087 70 138.287 68.6 139.387 66.8ZM131.415 110.9C134.115 114.4 133.915 119 130.815 124.8C130.415 125.7 129.615 125.3 128.815 124.9C128.015 124.4 127.415 124.1 127.815 123.3C130.215 118.8 130.515 115.3 128.715 113C124.015 106.9 106.715 107.5 87.5148 110.2C84.9148 117.3 81.4148 126.4 77.1148 137.4C70.2148 155.2 63.3148 173 60.8148 179.4C60.5148 180.2 60.1148 181.1 59.8148 181.9C59.5148 182.5 59.0148 182.4 58.4148 182.4C58.2148 182.4 57.9148 182.4 57.7148 182.3C56.9148 181.9 56.3148 181.5 56.6148 180.6L57.6148 178.2C62.9148 162.7 62.3148 132.9 49.1148 123.4C47.1148 121.7 45.0148 120.2 42.7148 119.1C40.5148 119.6 38.4148 120.1 36.5148 120.5C20.4148 124.3 21.7148 124.3 21.0148 122.3C20.4148 120.5 20.0148 120 28.0148 116.7C32.7148 114.6 38.0148 114.2 42.9148 115.6C57.8148 112.2 72.2148 109.1 85.1148 107.2C86.1148 104.4 87.0148 101.9 87.8148 99.8C87.4148 99.3 87.4148 98.6 87.6148 98.1C91.0148 90.2 91.1148 89.9 92.8148 90.6C94.6148 91.4 94.6148 91.4 88.9148 106.6C110.015 103.7 126.115 104 131.415 110.9ZM63.6148 162.9C70.7148 144.7 78.3148 124.9 83.7148 110.8C71.2148 112.8 58.3148 115.5 47.8148 117.9C49.1148 118.8 50.4148 119.8 51.5148 121C60.2148 130 64.1148 147.6 63.6148 162.9ZM140.345 150C140.745 150.6 141.045 151.3 140.345 151.8C134.345 156 126.245 158.5 122.645 158.5C121.445 158.5 120.345 158.3 119.345 157.8C118.045 157.1 117.045 155.9 116.645 154.5C111.845 157.9 106.145 159.7 100.345 159.7C98.9453 159.7 97.6453 159.5 96.4453 158.9C94.4453 157.9 93.1453 156 92.8453 153.8C92.6453 151.9 93.0453 148.9 96.7453 145.7C99.5453 143.2 103.645 144.1 104.245 146.1C104.745 148 104.945 148.9 104.345 150.1C103.845 151.3 101.645 153.6 96.9453 153.5C96.5453 153.6 96.2453 153.5 95.8453 153.5C95.8453 154 95.3453 155.8 98.1453 157.2C100.045 158.2 104.845 159.2 116.245 151.4C117.145 149.7 118.345 148.2 119.645 146.9C121.945 144.8 125.345 145.5 125.845 147.2C126.245 148.8 126.445 149.5 125.945 150.5C125.445 151.5 123.745 153.4 119.745 153.4C119.445 153.4 119.145 153.4 118.845 153.3C118.845 153.8 118.745 154.8 120.945 156.2C122.745 157.3 130.245 155.1 138.945 150C139.545 149.6 139.845 149.4 140.345 150ZM121.445 149C120.945 149.4 120.445 150 120.045 150.6H120.145C123.345 150.6 124.545 148.5 124.245 148.3C123.745 147.9 122.645 147.9 121.445 149ZM98.9453 148.2C98.3453 148.8 97.7453 149.4 97.1453 150.1H97.3453C101.245 150.1 102.645 147.6 102.345 147.4C101.645 147 100.445 146.9 98.9453 148.2Z" fill="#9B0000"/>
</svg>
