<svg width="213" height="220" viewBox="0 0 213 220" fill="none" xmlns="http://www.w3.org/2000/svg">
<path d="M111.4 21.7C114.1 25.2 113.9 29.8 110.8 35.6C110.4 36.5 109.6 36.1 108.8 35.7C108 35.2 107.4 34.9 107.8 34.1C110.2 29.6 110.5 26.1 108.7 23.8C104 17.7 86.7001 18.3 67.5 21C64.9001 28.1 61.4001 37.2 57.1001 48.2C50.2001 66 43.3001 83.8 40.8001 90.2C40.5001 91 40.1001 91.9 39.8001 92.7C39.5 93.3 39 93.2 38.4001 93.2C38.2001 93.2 37.9001 93.2 37.7001 93.1C36.9001 92.7 36.3001 92.3 36.6001 91.4L37.6001 89C42.9001 73.5 42.3001 43.7 29.1 34.2C27.1001 32.5 25.0001 31 22.7001 29.9C20.5 30.4 18.4 30.9 16.5001 31.3C0.400049 35.1 1.70005 35.1 1.00005 33.1C0.400049 31.3 4.9144e-05 30.8 8.00005 27.5C12.7001 25.4 18.0001 25 22.9001 26.4C37.8001 23 52.2 19.9 65.1001 18C66.1 15.2 67.0001 12.7 67.8001 10.6C67.4001 10.1 67.4001 9.40002 67.6001 8.90002C71.0001 1.00002 71.1001 0.700018 72.8001 1.40002C74.6001 2.20002 74.6001 2.20002 68.9 17.4C90.0001 14.5 106.1 14.8 111.4 21.7ZM43.6001 73.7C50.7001 55.5 58.3 35.7 63.7001 21.6C51.2001 23.6 38.3001 26.3 27.8001 28.7C29.1 29.6 30.4001 30.6 31.5001 31.8C40.2001 40.8 44.1 58.4 43.6001 73.7ZM95.1305 59.9C95.7305 59.2 96.0305 59.7 96.6305 60.4C97.3305 61 98.2305 61.6 97.5305 62.3C95.4305 64.7 92.2305 65.9 89.0305 65.3C85.3305 65 82.8305 61.2 80.7305 58.4C78.0305 63.5 75.5305 68.8 73.2305 74.2C73.1305 74.6 72.9305 75 72.7305 75.3C72.7305 75.4 72.7305 75.4 72.7305 75.4C72.3305 76 72.2305 76.2 71.7305 76.3C71.4305 76.3 71.0305 76.3 70.7305 76.1C69.6305 75.7 69.3305 75.1 69.6305 74.1C69.6305 74.1 69.6305 74.1 69.6305 74C69.7305 73.7 69.9305 73.3 70.0305 72.9L70.9305 70.8C72.6305 66.5 75.6305 59.3 74.6305 57.5C74.1305 56.7 74.8305 56.1 75.6305 55.7C76.4305 55.2 77.1305 55.1 77.5305 55.9C77.7305 56.1 77.8305 56.4 77.9305 56.6C79.4305 54.1 80.0305 54.1 80.6305 54C81.3305 53.9 82.0305 54.3 82.4305 54.8L82.7305 55.3C84.6305 58 86.7305 62.3 89.2305 62.5C91.5305 62.7 93.7305 61.7 95.1305 59.9ZM126.357 60.7C127.057 61.3 127.257 62 126.657 62.7C120.457 69.2 113.857 73 109.257 73C107.957 73 106.657 72.7 105.657 71.9C104.357 71.1 102.857 69.1 103.757 64.9C101.257 67 99.2571 68.7 97.6571 69.8C94.9571 71.7 93.7571 71.2 92.4571 70.2C91.4571 69.4 91.0571 68.7 91.8571 66.6C92.4571 65 93.2571 63.4 94.0571 61.9C96.5571 57.4 98.7571 54.6 100.857 53.3C101.957 52.7 103.157 52.4 104.257 52.5C105.357 52.7 106.357 53.2 107.057 53.9C108.257 55.2 109.157 56.9 109.657 58.6C109.757 59.3 109.357 59.6 108.857 60C108.957 60.5 108.857 60.9 108.757 61.4C106.357 66 106.457 69.9 107.357 70.6C109.457 72 117.157 68.9 124.757 60.9C125.457 60.2 125.657 60 126.357 60.7ZM101.857 62.1C103.157 60.9 104.657 59.8 106.157 58.8C105.657 57.6 104.857 56 103.857 55.9C103.857 55.9 103.857 55.9 103.757 55.9C103.157 55.9 100.957 56.4 97.0571 63.5C96.3571 64.8 95.6571 66.1 95.1571 67.4C97.1571 66.1 100.157 63.5 101.857 62.1ZM198.312 60.8C199.112 61.4 199.512 61.8 198.912 62.5C191.912 72.1 184.712 76.9 177.312 76.9C176.912 76.9 176.612 76.9 176.312 76.8C167.112 76.3 160.612 68.4 158.112 64.8C156.412 69.7 155.412 72.5 155.412 72.6C155.112 73.5 154.112 74 153.212 73.7C152.312 73.3 151.912 72.4 152.212 71.5C152.212 71.4 153.612 67.4 156.012 60.7C149.612 67.9 144.012 74.9 133.312 74.9C130.812 75 128.212 74.2 126.212 72.6C122.912 69.8 122.712 65 125.512 60.4C129.912 53.4 136.312 49.3 139.612 51.3C141.512 52.4 142.912 55.3 138.812 63.1C138.312 63.9 137.412 63.7 136.612 63.3C135.712 62.9 135.312 62.3 135.812 61.5C138.512 56.4 138.212 54.5 138.012 54.2C137.712 54.2 137.512 54.2 137.212 54.2C135.112 54.7 131.312 57.6 128.412 62.2C126.412 65.3 126.512 70.1 128.512 71.7C133.612 75.9 143.812 71.2 158.112 54.9C162.012 44 167.712 28.6 174.412 11.9C179.112 2.12193e-05 181.412 1.70002 182.412 1.70002C183.412 1.60002 184.312 1.70002 184.812 2.60002C187.212 7.10002 181.712 28.5 162.412 54.2C162.112 55 161.612 55.8 161.112 56.5C160.812 57.2 160.612 58 160.312 58.7C166.012 54.7 171.912 51 178.012 47.8C178.912 47.3 181.512 45.9 183.112 47.6C184.712 49.3 183.712 52.9 180.412 58.5C179.912 59.3 179.112 59 178.312 58.6C177.512 58.1 177.012 57.5 177.512 56.7C178.712 54.8 179.712 52.6 180.412 50.4C180.212 50.5 179.912 50.6 179.612 50.8C173.012 54.3 166.712 58.2 160.712 62.5C162.812 65.6 167.712 74.1 175.612 74.6C182.112 75 190.012 69.9 196.612 60.9C197.112 60.2 197.612 60.3 198.312 60.8ZM177.512 13.1C173.212 24 169.312 34.3 166.012 43.2C178.712 23.7 182.412 8.40002 182.212 3.90002C180.212 6.70002 178.712 9.80002 177.512 13.1ZM99.8114 126.5C104.511 136.7 98.5114 151.5 84.3114 165.2C68.5114 180.3 53.9114 183.9 43.6114 183.9C42.2114 183.9 41.0114 183.9 39.7114 183.8C36.7114 183.5 33.7114 182.9 30.9114 181.9C26.6114 190.8 22.1114 203.3 21.9114 203.6C21.1114 204.9 18.5114 203.8 19.1114 201.6C19.3114 200.6 20.2114 196.5 27.7114 180.6C25.2114 179.6 23.0114 177.9 21.2114 175.8C20.7114 175.1 21.1114 174.6 21.9114 174C22.6114 173.5 23.4114 173.1 24.0114 173.8C25.4114 175.5 27.2114 176.7 29.2114 177.6C34.2114 167.2 41.5114 152.7 51.9114 132.3L52.0114 132.1C51.7114 131.3 52.1114 130.4 52.9114 130C53.0114 130 53.1114 129.9 53.1114 129.8L54.3114 127.6C33.5114 137.9 19.6114 156 18.3114 164.6C18.1114 165.9 18.1114 167.4 19.1114 167.8C20.0114 168.2 19.7114 169 19.3114 169.9C19.0114 170.7 18.7114 171.3 17.8114 170.9C16.5114 170.3 14.3114 168.7 15.0114 164.2C16.6114 153.1 33.1114 132.8 56.8114 122.7C64.6114 107.5 64.8114 107.5 66.3114 107.8C67.1114 107.9 67.7114 108.5 67.7114 109.3C67.8114 110.1 65.7114 115.2 63.0114 120.4C67.9114 118.8 73.0114 117.7 78.2114 117.1C88.6114 116 96.5114 119.4 99.8114 126.5ZM81.9114 162.7C94.9114 150.3 100.711 136.6 96.7114 127.9C94.1114 122.2 87.4114 119.5 78.5114 120.5C72.4114 121.1 66.3114 122.6 60.6114 124.9C59.3114 127.2 57.8114 129.5 56.1114 131.6L54.9114 133.9C47.6114 148.2 38.8114 165.4 32.3114 178.8C34.8114 179.6 37.4114 180.2 40.0114 180.4C49.8114 181.3 65.0114 178.9 81.9114 162.7ZM165.575 166.6C166.275 167.2 166.875 167.9 166.275 168.6C160.875 175 156.075 177.7 152.175 176.6C149.175 175.8 147.075 173 146.275 168.8C145.675 165.6 144.675 163.5 143.475 163.3C142.575 163.2 139.075 163.8 131.475 177.6C131.175 178.1 130.675 178.3 130.075 178.2C129.875 178.2 129.775 178.2 129.575 178.1C128.775 177.8 128.175 177.3 128.275 176.5C128.875 174.4 129.675 172.3 130.575 170.3C124.775 175.8 118.975 179 114.675 179C113.475 179 112.175 178.7 111.175 177.9C109.875 177.1 108.375 175.1 109.275 170.9C106.775 173 104.775 174.7 103.175 175.8C100.475 177.7 99.1747 177.3 97.9747 176.2C96.9747 175.4 96.5747 174.7 97.2747 172.6C97.9747 171 98.6747 169.4 99.5747 167.9C101.975 163.4 104.275 160.6 106.375 159.3C107.375 158.7 108.575 158.4 109.775 158.5C110.875 158.7 111.775 159.2 112.575 159.9C113.775 161.2 114.675 162.9 115.075 164.6C115.275 165.3 114.875 165.6 114.375 166C114.375 166.5 114.375 166.9 114.175 167.4C111.875 172 111.875 175.9 112.875 176.6C114.875 178 122.275 175 129.775 167.4C132.175 164.7 134.075 161.7 135.475 158.4C135.875 157.6 136.775 157.9 137.575 158.2C138.475 158.6 138.975 158.9 138.575 159.8C138.075 161.1 137.575 162.3 137.075 163.4C139.675 160.7 141.675 160.3 143.775 160.6C145.175 160.6 146.575 161.3 147.575 162.4C148.675 164.1 149.375 166.1 149.675 168.1C150.175 171 150.875 174.3 152.475 174.7C154.975 175.4 159.875 172 164.175 167C164.775 166.3 164.875 166 165.575 166.6ZM107.375 168.1C108.675 166.9 110.075 165.8 111.575 164.8C111.175 163.6 110.375 162 109.375 161.9H109.275C108.675 161.9 106.375 162.4 102.575 169.5C101.875 170.8 101.175 172.1 100.575 173.4C102.575 172.1 105.675 169.5 107.375 168.1ZM212.907 145.5C212.907 146.4 212.107 147.1 211.207 147.1L178.607 147.2C174.707 157 170.407 165.5 166.607 168.8C157.407 197.1 153.707 216.2 153.607 217.4C153.507 219.3 151.707 218.1 151.607 218C150.107 216.9 147.407 214.8 170.207 147.2H137.607C137.607 147.3 136.707 148.6 136.007 148.6C135.807 148.6 135.607 148.6 135.407 148.6L131.207 147.1C130.407 146.9 130.007 146.1 130.107 145.3C130.207 144.4 130.907 143.8 131.807 143.8H171.307C174.007 135.8 177.107 126.9 180.507 117C186.407 100.3 187.307 101.7 188.707 101.7C189.607 101.7 190.607 101.6 190.907 102.4C192.107 105.4 186.607 125.7 179.907 143.8H211.207C212.107 143.8 212.907 144.5 212.907 145.5ZM170.007 158.3C171.907 154.7 173.607 151 175.007 147.2H173.707C172.407 151.1 171.207 154.8 170.007 158.3ZM174.907 143.8H176.307C180.007 133.6 183.207 123.1 185.707 112.6C185.107 114.1 184.507 116 183.707 118.1C180.507 127.4 177.507 136 174.907 143.8Z" fill="#9B0000"/>
</svg>
