<svg width="219" height="219" viewBox="0 0 219 219" fill="none" xmlns="http://www.w3.org/2000/svg">
<path d="M101.1 9.80001C104.9 13.7 104.5 20.1 100 29.4C99.6 30.2 98.9 30.1 98 29.7C97.2 29.3 96.5 28.7 96.9 27.9C100.7 20.2 101.3 14.9 98.7 12.1C92.3 5.50001 68.5 12.4 46.8 20.6C44.2 27.6 40.7 36.6 36.5 47.5C35.7 49.5 35 51.4 34.2 53.4L58.7 51.5C59.6 51.4 59.7 52.1 59.8 53.1C59.9 54 59.9 54.8 59 54.9L32.9 56.9C29.1 66.5 25.6 75.5 23.1 81.9C21.7 86 20.3 89.4 19.2 92C18.9 92.6 18.5 92.3 17.8 92.3C17.6 92.3 17.4 92.3 17.2 92.2C16.3 91.9 15.7 91.6 16.1 90.7C17.4 87.3 18.8 83.7 20.2 80.1C22.8 72.6 25 65.1 26.6 57.4L19.7 57.9H19.5C18.6 57.9 18.6 57.2 18.5 56.3C18.5 55.3 18.5 54.6 19.4 54.5L27.3 53.9C29.3 42.6 29.5 32.7 25.5 29.4L25.3 29.2C22.2 30.6 19.4 31.8 16.9 32.8C1.79998 39.3 1.89998 39.1 0.899976 37.3C-2.40654e-05 35.5 0.499976 35 7.39998 30.5C15.2 25.3 21.3 23.7 25.6 25.5C31.8 22.9 38.1 20.3 44.2 18C45.4 14.9 46.4 12.2 47.2 9.90001C46.8 9.40001 46.8 8.70001 47 8.20001C50.4 0.300008 50.5 5.96046e-06 52.3 0.700009C54 1.40001 54 1.50001 48.4 16.4C72.7 7.40001 93.9 2.20001 101.1 9.80001ZM31 52.4C35.2 41.4 39.3 30.8 42.6 22.3C37.7 24.1 33 26.1 28.7 27.8C32.6 32.5 32.7 42 31 52.4ZM94.9594 60C95.5594 60.7 95.7594 61.4 95.0594 62.1C90.4594 66.4 86.7594 66.6 84.4594 65.9C82.4594 65.3 80.6594 64 79.3594 62.3C78.8594 64.6 77.9594 66.7 76.7594 68.7C74.8594 71.8 73.2594 72.1 71.9594 72.1C71.5594 72.1 71.2594 72.1 70.8594 71.9C69.6594 71.7 68.5594 71 67.9594 70C66.7594 67.8 67.0594 64.1 68.6594 59.9C69.6594 57 71.7594 54.5 74.5594 53.2C75.5594 52.8 76.3594 52.1 77.2594 52.5C77.7594 52.4 78.2594 52.6 78.6594 53C79.4594 54 79.9594 55.2 79.9594 56.5C81.3594 59.9 82.8594 63.2 84.9594 63.8C87.0594 64.4 90.7594 62.4 93.4594 59.8C94.1594 59.2 94.2594 59.4 94.9594 60ZM73.8594 66.9C75.5594 64 76.5594 60.7 76.6594 57.4C76.4594 56.8 76.2594 56.2 76.0594 55.6C76.0594 55.6 75.9594 55.6 75.8594 55.6C75.7594 55.6 75.6594 55.6 75.5594 55.7C74.6594 56 73.1594 57.7 71.8594 61.1C70.3594 64.9 70.1594 68.4 70.6594 69.4C70.7594 69.7 70.9594 69.9 71.2594 70C71.5594 70.1 72.7594 68.7 73.8594 66.9ZM112.313 59.2C112.913 58.5 113.213 59 113.813 59.7C114.513 60.3 115.413 60.9 114.713 61.6C112.613 64 109.413 65.2 106.213 64.6C102.513 64.3 100.013 60.5 97.9133 57.7C95.2133 62.8 92.7133 68.1 90.4133 73.5C90.3133 73.9 90.1133 74.3 89.9133 74.6C89.9133 74.7 89.9133 74.7 89.9133 74.7C89.5133 75.3 89.4133 75.5 88.9133 75.6C88.6133 75.6 88.2133 75.6 87.9133 75.4C86.8133 75 86.5133 74.4 86.8133 73.4C86.8133 73.4 86.8133 73.4 86.8133 73.3C86.9133 73 87.1133 72.6 87.2133 72.2L88.1133 70.1C89.8133 65.8 92.8133 58.6 91.8133 56.8C91.3133 56 92.0133 55.4 92.8133 55C93.6133 54.5 94.3133 54.4 94.7133 55.2C94.9133 55.4 95.0133 55.7 95.1133 55.9C96.6133 53.4 97.2133 53.4 97.8133 53.3C98.5133 53.2 99.2133 53.6 99.6133 54.1L99.9133 54.6C101.813 57.3 103.913 61.6 106.413 61.8C108.713 62 110.913 61 112.313 59.2ZM155.284 60C155.884 60.7 156.484 61.5 155.784 62.1C150.984 66.5 144.784 71.2 140.384 71.2C139.484 71.2 138.484 70.9 137.684 70.4C136.384 69.4 134.584 66.8 137.384 60.2C138.684 57.1 138.284 56.2 138.284 56.2C137.484 56.1 133.684 58.1 129.284 64.6C128.784 65.3 127.984 65.2 127.184 64.7C126.484 64.3 125.984 63.7 126.384 62.9C128.484 58.5 128.184 56.5 127.684 56.2C126.284 55.4 119.484 58.3 111.784 70C111.284 70.7 110.684 70.7 109.884 70.3C109.084 69.9 108.484 69.3 108.784 68.5L115.584 51.9C115.884 51.1 116.884 51.1 117.684 51.5C118.584 51.8 119.084 52.4 118.684 53.2L116.384 59C121.484 53.9 126.184 52.1 129.184 53.8C130.384 54.2 131.284 55.4 131.384 56.7C132.684 55.5 133.984 54.5 135.584 53.7C136.884 53 138.484 53.2 139.684 54.1C141.184 54.9 142.784 56.2 140.484 61.5C138.884 65.2 138.684 68.6 139.184 69C139.984 69.5 144.384 68.9 153.484 60.6C154.184 60 154.684 59.3 155.284 60ZM185.434 60C186.134 60.6 186.334 61.3 185.734 62C179.534 68.5 172.934 72.3 168.334 72.3C167.034 72.3 165.734 72 164.734 71.2C163.434 70.4 161.934 68.4 162.834 64.2C160.334 66.3 158.334 68 156.734 69.1C154.034 71 152.834 70.5 151.534 69.5C150.534 68.7 150.134 68 150.934 65.9C151.534 64.3 152.334 62.7 153.134 61.2C155.634 56.7 157.834 53.9 159.934 52.6C161.034 52 162.234 51.7 163.334 51.8C164.434 52 165.434 52.5 166.134 53.2C167.334 54.5 168.234 56.2 168.734 57.9C168.834 58.6 168.434 58.9 167.934 59.3C168.034 59.8 167.934 60.2 167.834 60.7C165.434 65.3 165.534 69.2 166.434 69.9C168.534 71.3 176.234 68.2 183.834 60.2C184.534 59.5 184.734 59.3 185.434 60ZM160.934 61.4C162.234 60.2 163.734 59.1 165.234 58.1C164.734 56.9 163.934 55.3 162.934 55.2C162.934 55.2 162.934 55.2 162.834 55.2C162.234 55.2 160.034 55.7 156.134 62.8C155.434 64.1 154.734 65.4 154.234 66.7C156.234 65.4 159.234 62.8 160.934 61.4ZM209.798 60C210.598 60.6 211.198 61.2 210.598 61.9C204.698 69.4 198.098 73.6 192.798 73.6C191.298 73.6 189.698 73.2 188.398 72.4C179.198 66.7 182.798 44.5 198.398 11.6C203.598 0.500011 205.398 1.10001 207.098 0.500011C207.098 0.500011 208.998 0.100011 209.398 1.00001C212.198 7.00001 201.398 44.2 186.898 61.6C186.498 64 186.798 68.8 189.898 70.6C193.798 73 201.998 68.5 208.298 60.5C208.898 59.7 209.098 59.5 209.798 60ZM201.398 13.1C192.198 32.7 187.998 46.6 186.998 55.8C198.698 39.2 206.598 11.2 206.498 3.90001C204.498 6.80001 202.798 9.90001 201.398 13.1ZM105.52 125.8C110.22 136 104.22 150.8 90.0195 164.5C74.2195 179.6 59.6195 183.2 49.3195 183.2C47.9195 183.2 46.7195 183.2 45.4195 183.1C42.4195 182.8 39.4195 182.2 36.6195 181.2C32.3195 190.1 27.8195 202.6 27.6195 202.9C26.8195 204.2 24.2195 203.1 24.8195 200.9C25.0195 199.9 25.9195 195.8 33.4195 179.9C30.9195 178.9 28.7195 177.2 26.9195 175.1C26.4195 174.4 26.8195 173.9 27.6195 173.3C28.3195 172.8 29.1195 172.4 29.7195 173.1C31.1195 174.8 32.9195 176 34.9195 176.9C39.9195 166.5 47.2195 152 57.6195 131.6L57.7195 131.4C57.4195 130.6 57.8195 129.7 58.6195 129.3C58.7195 129.3 58.8195 129.2 58.8195 129.1L60.0195 126.9C39.2195 137.2 25.3195 155.3 24.0195 163.9C23.8195 165.2 23.8195 166.7 24.8195 167.1C25.7195 167.5 25.4195 168.3 25.0195 169.2C24.7195 170 24.4195 170.6 23.5195 170.2C22.2195 169.6 20.0195 168 20.7195 163.5C22.3195 152.4 38.8195 132.1 62.5195 122C70.3195 106.8 70.5195 106.8 72.0195 107.1C72.8195 107.2 73.4195 107.8 73.4195 108.6C73.5195 109.4 71.4195 114.5 68.7195 119.7C73.6195 118.1 78.7195 117 83.9195 116.4C94.3195 115.3 102.22 118.7 105.52 125.8ZM87.6195 162C100.62 149.6 106.42 135.9 102.42 127.2C99.8195 121.5 93.1195 118.8 84.2195 119.8C78.1195 120.4 72.0195 121.9 66.3195 124.2C65.0195 126.5 63.5195 128.8 61.8195 130.9L60.6195 133.2C53.3195 147.5 44.5195 164.7 38.0195 178.1C40.5195 178.9 43.1195 179.5 45.7195 179.7C55.5195 180.6 70.7195 178.2 87.6195 162ZM171.283 165.9C171.983 166.5 172.583 167.2 171.983 167.9C166.583 174.3 161.783 177 157.883 175.9C154.883 175.1 152.783 172.3 151.983 168.1C151.383 164.9 150.383 162.8 149.183 162.6C148.283 162.5 144.783 163.1 137.183 176.9C136.883 177.4 136.383 177.6 135.783 177.5C135.583 177.5 135.483 177.5 135.283 177.4C134.483 177.1 133.883 176.6 133.983 175.8C134.583 173.7 135.383 171.6 136.283 169.6C130.483 175.1 124.683 178.3 120.383 178.3C119.183 178.3 117.883 178 116.883 177.2C115.583 176.4 114.083 174.4 114.983 170.2C112.483 172.3 110.483 174 108.883 175.1C106.183 177 104.883 176.6 103.683 175.5C102.683 174.7 102.283 174 102.983 171.9C103.683 170.3 104.383 168.7 105.283 167.2C107.683 162.7 109.983 159.9 112.083 158.6C113.083 158 114.283 157.7 115.483 157.8C116.583 158 117.483 158.5 118.283 159.2C119.483 160.5 120.383 162.2 120.783 163.9C120.983 164.6 120.583 164.9 120.083 165.3C120.083 165.8 120.083 166.2 119.883 166.7C117.583 171.3 117.583 175.2 118.583 175.9C120.583 177.3 127.983 174.3 135.483 166.7C137.883 164 139.783 161 141.183 157.7C141.583 156.9 142.483 157.2 143.283 157.5C144.183 157.9 144.683 158.2 144.283 159.1C143.783 160.4 143.283 161.6 142.783 162.7C145.383 160 147.383 159.6 149.483 159.9C150.883 159.9 152.283 160.6 153.283 161.7C154.383 163.4 155.083 165.4 155.383 167.4C155.883 170.3 156.583 173.6 158.183 174C160.683 174.7 165.583 171.3 169.883 166.3C170.483 165.6 170.583 165.3 171.283 165.9ZM113.083 167.4C114.383 166.2 115.783 165.1 117.283 164.1C116.883 162.9 116.083 161.3 115.083 161.2H114.983C114.383 161.2 112.083 161.7 108.283 168.8C107.583 170.1 106.883 171.4 106.283 172.7C108.283 171.4 111.383 168.8 113.083 167.4ZM218.615 144.8C218.615 145.7 217.815 146.4 216.915 146.4L184.315 146.5C180.415 156.3 176.115 164.8 172.315 168.1C163.115 196.4 159.415 215.5 159.315 216.7C159.215 218.6 157.415 217.4 157.315 217.3C155.815 216.2 153.115 214.1 175.915 146.5H143.315C143.315 146.6 142.415 147.9 141.715 147.9C141.515 147.9 141.315 147.9 141.115 147.9L136.915 146.4C136.115 146.2 135.715 145.4 135.815 144.6C135.915 143.7 136.615 143.1 137.515 143.1H177.015C179.715 135.1 182.815 126.2 186.215 116.3C192.115 99.6 193.015 101 194.415 101C195.315 101 196.315 100.9 196.615 101.7C197.815 104.7 192.315 125 185.615 143.1H216.915C217.815 143.1 218.615 143.8 218.615 144.8ZM175.715 157.6C177.615 154 179.315 150.3 180.715 146.5H179.415C178.115 150.4 176.915 154.1 175.715 157.6ZM180.615 143.1H182.015C185.715 132.9 188.915 122.4 191.415 111.9C190.815 113.4 190.215 115.3 189.415 117.4C186.215 126.7 183.215 135.3 180.615 143.1Z" fill="#9B0000"/>
</svg>
