<svg width="193" height="240" viewBox="0 0 193 240" fill="none" xmlns="http://www.w3.org/2000/svg">
<path d="M55.6 8.00001C64.1 24.6 50.4 69.4 26.4 89.2C20.2 94.3 15 96.9 10.7 96.9C9.59995 96.9 8.49995 96.7 7.49995 96.3C5.19995 95.5 2.39995 93.3 1.39995 87.4C-4.85778e-05 78.7 3.79995 63.6 13.1 48.2C11.8 41 12.6 33.6 15.3 26.8C20.2 14.3 30 4.50001 40.5 1.80001C47.3 9.29832e-06 52.7 2.20001 55.6 8.00001ZM24.1 87.6C47.1 68.7 60.6 25.1 52.6 9.50001C50.4 5.10001 46.7 3.70001 41.3 5.10001C31.9 7.50001 23 16.5 18.5 28.1C16.5 33 15.6 38.4 15.9 43.7C21.9 34.8 29.3 26.7 37.7 19.9C38.5 19.3 39 19.8 39.5 20.5C40.1 21.3 40.6 22 39.9 22.6C30.7 30 22.9 38.8 16.7 48.9C17.4 51.6 18.5 54.2 20 56.5C20.5 57.3 20 57.8 19.2 58.3C18.4 58.8 17.7 59.2 17.2 58.4C16 56.6 15.1 54.8 14.4 52.8C6.69995 66.5 3.39995 80.5 4.59995 87.9C4.99995 90.2 5.99995 93.2 8.49995 94.2C11.9 95.5 17.4 93.1 24.1 87.6ZM85.3593 62.8C86.0593 63.5 86.4593 64.2 85.8593 64.8C80.4593 70.1 75.2593 72.8 70.2593 72.8C69.2593 72.8 68.1593 72.7 67.1593 72.4C65.0593 71.9 63.0593 71 61.2593 69.7C55.5593 76.2 48.7593 84.3 43.7593 90.4C43.4593 90.8 43.3593 90.8 42.8593 90.8C42.5593 90.8 42.1593 90.7 41.8593 90.4C41.1593 89.8 40.5593 89 41.1593 88.3C48.7593 79.1 54.4593 72.3 58.6593 67.4C55.3593 63.9 52.7593 59.8 50.9593 55.3C50.6593 54.4 51.3593 54.1 52.2593 53.7C53.1593 53.4 53.8593 53.3 54.1593 54.2C55.7593 58.1 58.0593 61.7 60.8593 64.9C70.4593 53.9 70.7593 55 71.7593 55.7C72.2593 56 72.6593 56.5 72.7593 57C72.8593 57.6 72.6593 58.2 72.2593 58.6C71.9593 59.3 71.1593 59.6 70.4593 59.4C68.8593 61 66.4593 63.8 63.4593 67.1C64.9593 68.7 66.7593 69.9 68.8593 70.6C73.5593 71.7 78.0593 68.5 83.6593 63C84.3593 62.4 84.7593 62.2 85.3593 62.8ZM113.298 25.4C113.898 29.2 112.998 34.7 110.798 41C110.498 41.9 109.698 41.8 108.898 41.5C107.998 41.2 107.298 40.7 107.598 39.8C111.198 29.8 110.198 24.1 108.798 23.4C108.098 23.1 105.898 24.2 102.998 28.6C98.3984 35.5 93.5984 46.9 89.2984 59.3C90.8984 59.5 92.2984 60.3 93.2984 61.6C93.4984 61.9 93.6984 62.3 93.8984 62.6C98.4984 62.6 104.098 62.9 109.098 62.5C110.098 62.4 109.998 62.7 109.998 63.6C110.098 64.6 110.198 65.2 109.298 65.3C103.298 65.7 98.5984 66 94.8984 66.1C96.5984 79.7 82.0984 110.1 76.6984 117.2C76.1984 118.3 74.9984 118.9 73.7984 118.6C73.5984 118.6 73.2984 118.6 72.9984 118.5C71.1984 117.8 70.5984 116.7 70.6984 115.8C70.9984 111.2 76.4984 88.1 83.6984 65.6C80.8984 65.1 80.6984 64.3 80.4984 63.7C80.0984 61.6 82.5984 60.7 83.8984 60.2C84.4984 60 85.0984 59.8 85.6984 59.6C90.1984 46.4 95.2984 34.1 100.198 26.7C104.898 19.7 107.898 20.4 109.898 21.5C111.698 22 112.998 23.5 113.298 25.4ZM88.1984 62.6V62.7H88.7984C88.5984 62.6 88.3984 62.6 88.1984 62.6ZM91.4984 66.1C89.7984 66.2 88.2984 66.1 87.0984 66C80.2984 87 74.9984 108.9 74.1984 115.1C79.8984 107.7 93.2984 77 91.4984 66.1ZM135.208 62.8C135.808 63.5 136.008 64.2 135.308 64.9C130.708 69.2 127.008 69.4 124.708 68.7C122.708 68.1 120.908 66.8 119.608 65.1C119.108 67.4 118.208 69.5 117.008 71.5C115.108 74.6 113.508 74.9 112.208 74.9C111.808 74.9 111.508 74.9 111.108 74.7C109.908 74.5 108.808 73.8 108.208 72.8C107.008 70.6 107.308 66.9 108.908 62.7C109.908 59.8 112.008 57.3 114.808 56C115.808 55.6 116.608 54.9 117.508 55.3C118.008 55.2 118.508 55.4 118.908 55.8C119.708 56.8 120.208 58 120.208 59.3C121.608 62.7 123.108 66 125.208 66.6C127.308 67.2 131.008 65.2 133.708 62.6C134.408 62 134.508 62.2 135.208 62.8ZM114.108 69.7C115.808 66.8 116.808 63.5 116.908 60.2C116.708 59.6 116.508 59 116.308 58.4C116.308 58.4 116.208 58.4 116.108 58.4C116.008 58.4 115.908 58.4 115.808 58.5C114.908 58.8 113.408 60.5 112.108 63.9C110.608 67.7 110.408 71.2 110.908 72.2C111.008 72.5 111.208 72.7 111.508 72.8C111.808 72.9 113.008 71.5 114.108 69.7ZM152.562 62C153.162 61.3 153.462 61.8 154.062 62.5C154.762 63.1 155.662 63.7 154.962 64.4C152.862 66.8 149.662 68 146.462 67.4C142.762 67.1 140.262 63.3 138.162 60.5C135.462 65.6 132.962 70.9 130.662 76.3C130.562 76.7 130.362 77.1 130.162 77.4C130.162 77.5 130.162 77.5 130.162 77.5C129.762 78.1 129.662 78.3 129.162 78.4C128.862 78.4 128.462 78.4 128.162 78.2C127.062 77.8 126.762 77.2 127.062 76.2C127.062 76.2 127.062 76.2 127.062 76.1C127.162 75.8 127.362 75.4 127.462 75L128.362 72.9C130.062 68.6 133.062 61.4 132.062 59.6C131.562 58.8 132.262 58.2 133.062 57.8C133.862 57.3 134.562 57.2 134.962 58C135.162 58.2 135.262 58.5 135.362 58.7C136.862 56.2 137.462 56.2 138.062 56.1C138.762 56 139.462 56.4 139.862 56.9L140.162 57.4C142.062 60.1 144.162 64.4 146.662 64.6C148.962 64.8 151.162 63.8 152.562 62ZM183.181 35.2C183.581 36.5 180.581 44 175.181 52.9C164.981 75.9 167.381 79.8 167.681 80.1C168.281 81.1 168.681 81.2 167.081 82.8C166.581 83.3 165.581 83.1 164.881 82C163.081 79.5 163.681 73.8 166.581 65.2C163.981 68.6 161.081 71.7 157.981 74.7C156.481 75.9 154.881 77.1 153.181 78.1C151.781 79.2 149.781 79.1 148.381 77.9C147.181 76.9 146.481 76.5 147.281 73.7C148.481 69.8 150.181 65.9 152.281 62.3C155.781 56.2 159.181 53.4 162.581 53.8C164.881 54.2 166.881 55.7 167.881 57.8C169.481 55.5 170.981 53.3 172.281 51.1C174.381 46.4 176.781 41.2 179.681 35.5C179.981 35 180.381 34.6 181.581 34.7C182.281 34.7 182.881 34.6 183.181 35.2ZM155.681 72.2C159.381 68.7 162.681 65 165.681 60.9C164.981 59.4 163.781 57.3 162.181 57.1H162.081C161.081 57.1 158.681 57.9 155.181 64C150.681 72 150.281 74.8 150.281 75.6C152.281 74.9 154.181 73.7 155.681 72.2ZM72.9964 187.7C73.8964 187.3 74.1964 186.9 74.5964 187.7C74.9964 188.6 75.1964 189.4 74.3964 189.7C65.7964 193.6 57.8964 197.5 52.2964 200.5C53.5964 202 54.3964 203.9 54.5964 205.9C54.6964 208.8 53.4964 211.6 51.2964 213.4C45.4964 219.3 37.2964 222.5 31.8964 222.5C30.7964 222.6 29.5964 222.4 28.5964 222C26.9964 221.5 25.8964 220 25.8964 218.4C25.7964 213.9 33.0964 207.4 46.8964 199.7C44.1964 197.3 41.2964 195.1 38.3964 193.1C33.8964 190.1 29.6964 186.7 25.7964 183C21.2964 179.1 19.1964 173 20.2964 167.1C23.1964 151.9 45.3964 137.1 59.6964 130.9C68.6964 127 73.4964 126.4 75.4964 129C78.3964 133 71.1964 141.9 68.0964 145.5C67.3964 146.2 67.1964 145.9 66.4964 145.3C65.7964 144.7 64.8964 144 65.4964 143.3C70.3964 137.7 73.4964 132 72.6964 131C72.6964 131 71.2964 129.5 60.9964 134C44.5964 141.1 25.9964 155.4 23.6964 167.8C22.7964 172.5 24.4964 177.5 28.1964 180.6C31.9964 184.2 35.9964 187.4 40.2964 190.4C43.6964 192.7 46.9964 195.2 49.9964 197.9C56.1964 194.6 64.5964 191.5 72.9964 187.7ZM48.9964 211.1C50.3964 209.9 51.2964 208.1 51.2964 206.2C50.9964 204.7 50.3964 203.3 49.2964 202.2C29.4964 213.2 29.2964 218 29.2964 218.3C29.2964 218.4 29.2964 218.6 29.7964 218.9C32.6964 220 42.0964 217.9 48.9964 211.1ZM105.628 186.8C106.328 187.4 106.428 188 105.828 188.7C100.828 194.6 96.2285 197 92.3285 195.9C89.0285 194.9 86.7285 191.4 86.0285 186.4C85.6285 183.8 84.8285 182.1 84.0285 182C83.5285 181.9 79.8285 181.7 71.2285 197.4C71.1285 197.5 71.0285 197.7 70.9285 197.8C70.6285 198.2 70.2285 198.4 69.7285 198.4C69.4285 198.4 69.1285 198.1 68.9285 197.9C68.1285 197.4 67.6285 196.8 68.0285 196C68.1285 195.9 68.2285 195.7 68.3285 195.6C70.7285 190 72.8285 184.3 74.6285 178.5C74.6285 178.3 74.7285 178.1 74.8285 177.9C76.6285 172.5 78.9285 165.5 81.7285 156.4C83.5285 150.8 88.8285 134.6 93.9285 128.9C94.5285 128.3 95.3285 127.9 96.1285 127.9C97.0285 127.8 97.8285 128.1 98.4285 128.7C99.1285 129.3 100.028 129.8 100.028 131C100.028 138.5 93.4285 156.5 77.9285 179.4C77.4285 180.7 77.0285 181.9 76.6285 183.1C79.6285 179.7 82.3285 178.2 84.6285 178.6C86.3285 179 88.6285 180.5 89.3285 185.9C89.9285 189.5 91.2285 193.2 93.1285 193.8C95.6285 194.5 100.028 191.4 104.028 186.7C104.628 186 104.928 186.2 105.628 186.8ZM85.0285 157.4C83.9285 160.7 83.0285 163.7 82.1285 166.4C93.3285 147.7 97.0285 134.6 96.7285 130.8C94.7285 132.8 90.2285 140.6 85.0285 157.4ZM125.871 187.1C126.371 187.9 126.771 188.5 126.071 189L125.571 189.3C118.871 193.8 112.071 198 107.571 198C106.371 198 105.271 197.6 104.371 196.9C101.771 194.7 102.271 190.2 105.971 182C106.271 181.2 106.971 181.2 107.871 181.6C108.671 182 109.371 182.6 109.071 183.4C104.871 192.6 105.971 195.3 106.171 195.5C107.171 196.4 111.571 195.7 123.871 187.6L124.271 187.3C125.071 186.8 125.371 186.3 125.871 187.1ZM110.271 178C108.771 177.9 107.571 176.8 107.371 175.3C107.371 174.6 107.571 173.9 108.071 173.4C108.471 172.9 109.171 172.6 109.871 172.6C111.371 172.7 112.571 173.8 112.771 175.3C112.871 176 112.571 176.7 112.171 177.2C111.671 177.7 110.971 178 110.271 178ZM143.138 186C143.738 185.3 144.038 185.8 144.638 186.5C145.338 187.1 146.238 187.7 145.538 188.4C143.438 190.8 140.238 192 137.038 191.4C133.338 191.1 130.838 187.3 128.738 184.5C126.038 189.6 123.538 194.9 121.238 200.3C121.138 200.7 120.938 201.1 120.738 201.4C120.738 201.5 120.738 201.5 120.738 201.5C120.338 202.1 120.238 202.3 119.738 202.4C119.438 202.4 119.038 202.4 118.738 202.2C117.638 201.8 117.338 201.2 117.638 200.2C117.638 200.2 117.638 200.2 117.638 200.1C117.738 199.8 117.938 199.4 118.038 199L118.938 196.9C120.638 192.6 123.638 185.4 122.638 183.6C122.138 182.8 122.838 182.2 123.638 181.8C124.438 181.3 125.138 181.2 125.538 182C125.738 182.2 125.838 182.5 125.938 182.7C127.438 180.2 128.038 180.2 128.638 180.1C129.338 180 130.038 180.4 130.438 180.9L130.738 181.4C132.638 184.1 134.738 188.4 137.238 188.6C139.538 188.8 141.738 187.8 143.138 186ZM192.018 165.6C192.018 166.5 191.218 167.2 190.318 167.2L157.718 167.3C153.818 177.1 149.518 185.6 145.718 188.9C136.518 217.2 132.818 236.3 132.718 237.5C132.618 239.4 130.818 238.2 130.718 238.1C129.218 237 126.518 234.9 149.318 167.3H116.718C116.718 167.4 115.818 168.7 115.118 168.7C114.918 168.7 114.718 168.7 114.518 168.7L110.318 167.2C109.518 167 109.118 166.2 109.218 165.4C109.318 164.5 110.018 163.9 110.918 163.9H150.418C153.118 155.9 156.218 147 159.618 137.1C165.518 120.4 166.418 121.8 167.818 121.8C168.718 121.8 169.718 121.7 170.018 122.5C171.218 125.5 165.718 145.8 159.018 163.9H190.318C191.218 163.9 192.018 164.6 192.018 165.6ZM149.118 178.4C151.018 174.8 152.718 171.1 154.118 167.3H152.818C151.518 171.2 150.318 174.9 149.118 178.4ZM154.018 163.9H155.418C159.118 153.7 162.318 143.2 164.818 132.7C164.218 134.2 163.618 136.1 162.818 138.2C159.618 147.5 156.618 156.1 154.018 163.9Z" fill="#9B0000"/>
</svg>
